G75*
%MOIN*%
%OFA0B0*%
%FSLAX25Y25*%
%IPPOS*%
%LPD*%
%AMOC8*
5,1,8,0,0,1.08239X$1,22.5*
%
%ADD10C,0.00800*%
%ADD11C,0.01200*%
%ADD12C,0.01800*%
%ADD13R,0.09449X0.06299*%
%ADD14C,0.02830*%
%ADD15R,0.05512X0.07087*%
%ADD16R,0.07480X0.13386*%
%ADD17R,0.03150X0.01181*%
%ADD18R,0.01181X0.03150*%
%ADD19R,0.05709X0.01575*%
%ADD20C,0.00000*%
%ADD21R,0.05906X0.07087*%
%ADD22R,0.05906X0.09843*%
%ADD23OC8,0.06140*%
%ADD24R,0.04724X0.04724*%
%ADD25R,0.04724X0.03937*%
%ADD26C,0.00827*%
%ADD27R,0.02559X0.01969*%
%ADD28C,0.00866*%
%ADD29C,0.01900*%
%ADD30R,0.04724X0.02165*%
%ADD31R,0.05118X0.04134*%
%ADD32R,0.03937X0.03937*%
%ADD33R,0.03543X0.03150*%
%ADD34C,0.01000*%
%ADD35OC8,0.04362*%
%ADD36C,0.04362*%
D10*
X0013346Y0001600D02*
X0178346Y0001600D01*
X0013346Y0001600D02*
X0013346Y0126600D01*
D11*
X0013346Y0001600D02*
X0183346Y0001600D01*
X0183346Y0136600D01*
X0013346Y0136600D01*
X0013346Y0001600D01*
X0015746Y0004000D02*
X0015746Y0071600D01*
X0016594Y0071600D01*
X0016594Y0065303D01*
X0017648Y0064249D01*
X0022088Y0064249D01*
X0022088Y0056600D01*
X0015746Y0056600D01*
X0015746Y0111600D01*
X0022332Y0111600D01*
X0021822Y0111090D01*
X0021822Y0103951D01*
X0017648Y0103951D01*
X0016594Y0102897D01*
X0016594Y0094319D01*
X0017648Y0093265D01*
X0018946Y0093265D01*
X0018946Y0090821D01*
X0017648Y0090821D01*
X0016594Y0089767D01*
X0016594Y0078433D01*
X0017648Y0077379D01*
X0018946Y0077379D01*
X0018946Y0074935D01*
X0017648Y0074935D01*
X0016594Y0073881D01*
X0016594Y0065303D01*
X0017648Y0064249D01*
X0022088Y0064249D01*
X0022088Y0051085D01*
X0021229Y0051085D01*
X0019932Y0049788D01*
X0019932Y0042482D01*
X0021229Y0041186D01*
X0022088Y0041186D01*
X0022088Y0018014D01*
X0021229Y0018014D01*
X0019932Y0016718D01*
X0019932Y0009412D01*
X0021229Y0008115D01*
X0027748Y0008115D01*
X0029044Y0009412D01*
X0029044Y0016718D01*
X0027748Y0018014D01*
X0026888Y0018014D01*
X0026888Y0041186D01*
X0027748Y0041186D01*
X0028917Y0042356D01*
X0030087Y0041186D01*
X0036606Y0041186D01*
X0037776Y0042356D01*
X0038945Y0041186D01*
X0045464Y0041186D01*
X0046761Y0042482D01*
X0046761Y0049788D01*
X0045464Y0051085D01*
X0038945Y0051085D01*
X0037776Y0049915D01*
X0036606Y0051085D01*
X0030087Y0051085D01*
X0028917Y0049915D01*
X0027748Y0051085D01*
X0026888Y0051085D01*
X0026888Y0065936D01*
X0026523Y0066818D01*
X0026099Y0067241D01*
X0026099Y0071600D01*
X0044578Y0071600D01*
X0044578Y0070449D01*
X0045632Y0069394D01*
X0051061Y0069394D01*
X0052115Y0070449D01*
X0052115Y0070763D01*
X0056670Y0070763D01*
X0056767Y0070528D01*
X0057672Y0069624D01*
X0058853Y0069135D01*
X0060840Y0069135D01*
X0062021Y0069624D01*
X0062926Y0070528D01*
X0063346Y0071545D01*
X0063346Y0041853D01*
X0063217Y0041983D01*
X0063217Y0045617D01*
X0060364Y0048470D01*
X0056329Y0048470D01*
X0053476Y0045617D01*
X0053476Y0041583D01*
X0056329Y0038730D01*
X0059964Y0038730D01*
X0060224Y0038470D01*
X0056329Y0038470D01*
X0053476Y0035617D01*
X0053476Y0031583D01*
X0056329Y0028730D01*
X0060364Y0028730D01*
X0061414Y0029780D01*
X0062394Y0028800D01*
X0063546Y0027647D01*
X0063546Y0026943D01*
X0058152Y0026943D01*
X0057098Y0025889D01*
X0057098Y0023900D01*
X0049787Y0023900D01*
X0043902Y0018014D01*
X0038945Y0018014D01*
X0037649Y0016718D01*
X0037649Y0009412D01*
X0038945Y0008115D01*
X0045464Y0008115D01*
X0046761Y0009412D01*
X0046761Y0014368D01*
X0051693Y0019300D01*
X0057098Y0019300D01*
X0057098Y0017311D01*
X0058152Y0016257D01*
X0059687Y0016257D01*
X0060701Y0015243D01*
X0063796Y0012147D01*
X0063796Y0011463D01*
X0064208Y0010471D01*
X0064967Y0009711D01*
X0065959Y0009300D01*
X0067234Y0009300D01*
X0068226Y0009711D01*
X0068505Y0009990D01*
X0068812Y0009785D01*
X0069267Y0009596D01*
X0069750Y0009500D01*
X0070096Y0009500D01*
X0070096Y0012600D01*
X0070096Y0015700D01*
X0069750Y0015700D01*
X0069267Y0015604D01*
X0068812Y0015415D01*
X0068505Y0015210D01*
X0068226Y0015489D01*
X0067234Y0015900D01*
X0066549Y0015900D01*
X0065674Y0016775D01*
X0066209Y0017311D01*
X0066209Y0022903D01*
X0068146Y0024840D01*
X0068146Y0026300D01*
X0071177Y0026300D01*
X0071003Y0026126D01*
X0070792Y0025761D01*
X0070683Y0025354D01*
X0070683Y0022200D01*
X0074439Y0022200D01*
X0074439Y0021000D01*
X0070683Y0021000D01*
X0070683Y0017846D01*
X0070792Y0017439D01*
X0071003Y0017074D01*
X0071301Y0016776D01*
X0071666Y0016566D01*
X0072073Y0016457D01*
X0074439Y0016457D01*
X0074439Y0021000D01*
X0075639Y0021000D01*
X0075639Y0016457D01*
X0078006Y0016457D01*
X0078413Y0016566D01*
X0078778Y0016776D01*
X0079076Y0017074D01*
X0079286Y0017439D01*
X0079395Y0017846D01*
X0079395Y0021000D01*
X0075639Y0021000D01*
X0075639Y0022200D01*
X0074439Y0022200D01*
X0074439Y0026743D01*
X0072242Y0026743D01*
X0073146Y0027647D01*
X0075421Y0029921D01*
X0076412Y0028930D01*
X0078011Y0028930D01*
X0078011Y0031600D01*
X0078681Y0031600D01*
X0078681Y0028930D01*
X0080281Y0028930D01*
X0082951Y0031600D01*
X0099365Y0031600D01*
X0099365Y0029951D01*
X0101697Y0027619D01*
X0104995Y0027619D01*
X0107328Y0029951D01*
X0107328Y0031600D01*
X0118346Y0031600D01*
X0118346Y0037050D01*
X0118484Y0037050D01*
X0119476Y0037461D01*
X0120235Y0038221D01*
X0120646Y0039213D01*
X0120646Y0040487D01*
X0120235Y0041479D01*
X0120115Y0041600D01*
X0120235Y0041721D01*
X0120646Y0042713D01*
X0120646Y0043987D01*
X0120235Y0044979D01*
X0119476Y0045739D01*
X0118484Y0046150D01*
X0118346Y0046150D01*
X0118346Y0050800D01*
X0129996Y0050800D01*
X0130775Y0050021D01*
X0131046Y0049908D01*
X0131046Y0043647D01*
X0134046Y0040647D01*
X0135394Y0039300D01*
X0135444Y0039300D01*
X0135444Y0039280D01*
X0136498Y0038225D01*
X0141533Y0038225D01*
X0142587Y0039280D01*
X0142587Y0039303D01*
X0143346Y0038544D01*
X0143346Y0026600D01*
X0173346Y0026600D01*
X0173346Y0032619D01*
X0174995Y0032619D01*
X0177328Y0034951D01*
X0177328Y0038249D01*
X0175746Y0039830D01*
X0175746Y0047077D01*
X0175381Y0047959D01*
X0174706Y0048635D01*
X0173722Y0049619D01*
X0173346Y0049774D01*
X0173346Y0051600D01*
X0169553Y0051600D01*
X0169210Y0051943D01*
X0165737Y0051943D01*
X0165737Y0052464D01*
X0164683Y0053518D01*
X0162010Y0053518D01*
X0160956Y0052464D01*
X0160956Y0051943D01*
X0160665Y0051943D01*
X0158146Y0054462D01*
X0158146Y0059053D01*
X0156799Y0060400D01*
X0155646Y0061553D01*
X0155646Y0062632D01*
X0156235Y0063221D01*
X0156646Y0064213D01*
X0156646Y0065487D01*
X0156235Y0066479D01*
X0156115Y0066600D01*
X0156235Y0066721D01*
X0156646Y0067713D01*
X0156646Y0068987D01*
X0156235Y0069979D01*
X0155746Y0070468D01*
X0155746Y0107077D01*
X0155381Y0107959D01*
X0154706Y0108635D01*
X0153346Y0109994D01*
X0153346Y0111600D01*
X0138491Y0111600D01*
X0137716Y0112375D01*
X0136834Y0112740D01*
X0132055Y0112740D01*
X0131572Y0113223D01*
X0125357Y0113223D01*
X0124302Y0112168D01*
X0124302Y0111600D01*
X0122191Y0111600D01*
X0123346Y0111600D01*
X0123346Y0108494D01*
X0123206Y0108635D01*
X0122324Y0109000D01*
X0122178Y0109000D01*
X0122191Y0109047D01*
X0122191Y0110340D01*
X0118228Y0110340D01*
X0114266Y0110340D01*
X0114266Y0109047D01*
X0114355Y0108717D01*
X0114066Y0108428D01*
X0114066Y0104772D01*
X0114355Y0104483D01*
X0114266Y0104153D01*
X0114266Y0102860D01*
X0118228Y0102860D01*
X0118228Y0102860D01*
X0114266Y0102860D01*
X0114266Y0101567D01*
X0114375Y0101160D01*
X0114586Y0100795D01*
X0114884Y0100497D01*
X0115249Y0100286D01*
X0115655Y0100177D01*
X0118228Y0100177D01*
X0118228Y0102860D01*
X0111356Y0102860D01*
X0110096Y0101600D01*
X0110096Y0110350D01*
X0118219Y0110350D01*
X0118228Y0110340D01*
X0118228Y0110340D01*
X0114266Y0110340D01*
X0114266Y0111600D01*
X0086115Y0111600D01*
X0086235Y0111479D01*
X0086646Y0110487D01*
X0086646Y0109213D01*
X0086235Y0108221D01*
X0085746Y0107732D01*
X0085746Y0104750D01*
X0091244Y0104750D01*
X0092209Y0105150D01*
X0093502Y0105150D01*
X0094365Y0106013D01*
X0094365Y0108249D01*
X0096697Y0110581D01*
X0099995Y0110581D01*
X0102328Y0108249D01*
X0102328Y0104951D01*
X0099995Y0102619D01*
X0097759Y0102619D01*
X0096500Y0101359D01*
X0096235Y0100721D01*
X0096115Y0100600D01*
X0096235Y0100479D01*
X0096646Y0099487D01*
X0096646Y0098213D01*
X0096235Y0097221D01*
X0095476Y0096461D01*
X0094841Y0096198D01*
X0094841Y0092770D01*
X0103820Y0092770D01*
X0103820Y0095405D01*
X0103796Y0095463D01*
X0103796Y0097737D01*
X0104208Y0098729D01*
X0104967Y0099489D01*
X0105959Y0099900D01*
X0107234Y0099900D01*
X0108226Y0099489D01*
X0108505Y0099210D01*
X0108812Y0099415D01*
X0109267Y0099604D01*
X0109750Y0099700D01*
X0110096Y0099700D01*
X0110096Y0096600D01*
X0110097Y0096600D01*
X0112696Y0096600D01*
X0110097Y0096600D01*
X0110097Y0096600D01*
X0110097Y0099700D01*
X0110443Y0099700D01*
X0110926Y0099604D01*
X0111381Y0099415D01*
X0111790Y0099142D01*
X0112138Y0098794D01*
X0112412Y0098384D01*
X0112600Y0097929D01*
X0112696Y0097446D01*
X0112696Y0096600D01*
X0112696Y0095754D01*
X0112600Y0095271D01*
X0112412Y0094816D01*
X0112138Y0094406D01*
X0111790Y0094058D01*
X0111381Y0093785D01*
X0110926Y0093596D01*
X0110443Y0093500D01*
X0110097Y0093500D01*
X0110097Y0096600D01*
X0110096Y0096600D01*
X0110096Y0093500D01*
X0109750Y0093500D01*
X0109267Y0093596D01*
X0108812Y0093785D01*
X0108620Y0093913D01*
X0108620Y0092555D01*
X0109082Y0092432D01*
X0109546Y0092164D01*
X0109924Y0091785D01*
X0110031Y0091600D01*
X0113004Y0091600D01*
X0114788Y0093385D01*
X0115670Y0093750D01*
X0120238Y0093750D01*
X0120046Y0094213D01*
X0120046Y0095487D01*
X0120458Y0096479D01*
X0120897Y0096919D01*
X0119365Y0098451D01*
X0119365Y0100177D01*
X0118228Y0100177D01*
X0118228Y0102860D01*
X0118228Y0102860D01*
X0118228Y0102275D02*
X0118228Y0102275D01*
X0118228Y0101076D02*
X0118228Y0101076D01*
X0119365Y0099878D02*
X0107287Y0099878D01*
X0105906Y0099878D02*
X0096485Y0099878D01*
X0096383Y0101076D02*
X0114423Y0101076D01*
X0114266Y0102275D02*
X0097416Y0102275D01*
X0100850Y0103473D02*
X0114266Y0103473D01*
X0114166Y0104672D02*
X0102049Y0104672D01*
X0102328Y0105870D02*
X0114066Y0105870D01*
X0114066Y0107069D02*
X0102328Y0107069D01*
X0102309Y0108268D02*
X0114066Y0108268D01*
X0114266Y0109466D02*
X0101111Y0109466D01*
X0098346Y0106600D02*
X0094096Y0102350D01*
X0093346Y0102350D01*
X0083346Y0102350D01*
X0083346Y0109850D01*
X0073346Y0109850D01*
X0072209Y0107050D02*
X0074484Y0107050D01*
X0075449Y0107450D01*
X0080946Y0107450D01*
X0080946Y0104468D01*
X0080458Y0103979D01*
X0080046Y0102987D01*
X0080046Y0101713D01*
X0080135Y0101500D01*
X0076839Y0101500D01*
X0076839Y0101814D01*
X0075785Y0102868D01*
X0069569Y0102868D01*
X0068515Y0101814D01*
X0068515Y0096386D01*
X0069569Y0095331D01*
X0075785Y0095331D01*
X0076839Y0096386D01*
X0076839Y0096700D01*
X0080978Y0096700D01*
X0081217Y0096461D01*
X0082209Y0096050D01*
X0082752Y0096050D01*
X0086104Y0092698D01*
X0086104Y0089016D01*
X0086163Y0088875D01*
X0086163Y0088784D01*
X0083484Y0088784D01*
X0082176Y0087476D01*
X0082176Y0085409D01*
X0082452Y0085133D01*
X0082376Y0084850D01*
X0082376Y0084805D01*
X0070894Y0084805D01*
X0070646Y0085053D01*
X0069299Y0086400D01*
X0069083Y0086400D01*
X0069083Y0092054D01*
X0068029Y0093109D01*
X0063979Y0093109D01*
X0063346Y0092476D01*
X0062714Y0093109D01*
X0058664Y0093109D01*
X0057609Y0092054D01*
X0057609Y0086325D01*
X0057115Y0086325D01*
X0057115Y0089377D01*
X0056061Y0090431D01*
X0050632Y0090431D01*
X0049578Y0089377D01*
X0049578Y0088963D01*
X0044104Y0088963D01*
X0044706Y0089565D01*
X0045381Y0090241D01*
X0045746Y0091123D01*
X0045746Y0105107D01*
X0048155Y0105107D01*
X0049209Y0106161D01*
X0049209Y0111600D01*
X0050946Y0111600D01*
X0050946Y0098305D01*
X0050632Y0098305D01*
X0049578Y0097251D01*
X0049578Y0091823D01*
X0050632Y0090769D01*
X0056061Y0090769D01*
X0057115Y0091823D01*
X0057115Y0097251D01*
X0056061Y0098305D01*
X0055746Y0098305D01*
X0055746Y0105307D01*
X0058424Y0105307D01*
X0058424Y0111600D01*
X0059624Y0111600D01*
X0059624Y0105307D01*
X0062974Y0105307D01*
X0063381Y0105416D01*
X0063746Y0105627D01*
X0064044Y0105925D01*
X0064255Y0106290D01*
X0064364Y0106696D01*
X0064364Y0111600D01*
X0070578Y0111600D01*
X0070458Y0111479D01*
X0070046Y0110487D01*
X0070046Y0109213D01*
X0070458Y0108221D01*
X0071217Y0107461D01*
X0072209Y0107050D01*
X0072164Y0107069D02*
X0064364Y0107069D01*
X0064364Y0108268D02*
X0070438Y0108268D01*
X0070046Y0109466D02*
X0064364Y0109466D01*
X0064364Y0110665D02*
X0070120Y0110665D01*
X0070578Y0111600D02*
X0064364Y0111600D01*
X0064364Y0113000D01*
X0059624Y0113000D01*
X0059624Y0114200D01*
X0064364Y0114200D01*
X0064364Y0120504D01*
X0064255Y0120910D01*
X0064044Y0121275D01*
X0063746Y0121573D01*
X0063381Y0121784D01*
X0062974Y0121893D01*
X0059624Y0121893D01*
X0059624Y0114200D01*
X0058424Y0114200D01*
X0058424Y0121893D01*
X0055746Y0121893D01*
X0055746Y0122077D01*
X0055381Y0122959D01*
X0050381Y0127959D01*
X0049706Y0128635D01*
X0048824Y0129000D01*
X0031577Y0129000D01*
X0029995Y0130581D01*
X0026697Y0130581D01*
X0024365Y0128249D01*
X0024365Y0124951D01*
X0025361Y0123955D01*
X0022876Y0123955D01*
X0021822Y0122901D01*
X0021822Y0115110D01*
X0022876Y0114056D01*
X0033816Y0114056D01*
X0034871Y0115110D01*
X0034871Y0122901D01*
X0033816Y0123955D01*
X0031332Y0123955D01*
X0031577Y0124200D01*
X0047352Y0124200D01*
X0050946Y0120606D01*
X0050946Y0111600D01*
X0049209Y0111600D01*
X0049209Y0121038D01*
X0048155Y0122093D01*
X0039184Y0122093D01*
X0038129Y0121038D01*
X0038129Y0111600D01*
X0034361Y0111600D01*
X0033816Y0112144D01*
X0022876Y0112144D01*
X0022332Y0111600D01*
X0015746Y0111600D01*
X0015746Y0134200D01*
X0180946Y0134200D01*
X0180946Y0004000D01*
X0015746Y0004000D01*
X0015746Y0005196D02*
X0180946Y0005196D01*
X0180946Y0006394D02*
X0015746Y0006394D01*
X0015746Y0007593D02*
X0180946Y0007593D01*
X0180946Y0008791D02*
X0046140Y0008791D01*
X0046761Y0009990D02*
X0064688Y0009990D01*
X0063910Y0011188D02*
X0046761Y0011188D01*
X0046761Y0012387D02*
X0063557Y0012387D01*
X0062359Y0013585D02*
X0046761Y0013585D01*
X0047176Y0014784D02*
X0061160Y0014784D01*
X0060701Y0015243D02*
X0060701Y0015243D01*
X0059962Y0015982D02*
X0048375Y0015982D01*
X0049573Y0017181D02*
X0057228Y0017181D01*
X0057098Y0018379D02*
X0050772Y0018379D01*
X0047862Y0021975D02*
X0026888Y0021975D01*
X0026888Y0023173D02*
X0049061Y0023173D01*
X0046664Y0020776D02*
X0026888Y0020776D01*
X0026888Y0019578D02*
X0045465Y0019578D01*
X0044267Y0018379D02*
X0026888Y0018379D01*
X0028581Y0017181D02*
X0038112Y0017181D01*
X0037649Y0015982D02*
X0029044Y0015982D01*
X0029044Y0014784D02*
X0037649Y0014784D01*
X0037649Y0013585D02*
X0029044Y0013585D01*
X0029044Y0012387D02*
X0037649Y0012387D01*
X0037649Y0011188D02*
X0029044Y0011188D01*
X0029044Y0009990D02*
X0037649Y0009990D01*
X0038269Y0008791D02*
X0028424Y0008791D01*
X0024488Y0013065D02*
X0024488Y0046135D01*
X0024488Y0065458D01*
X0021346Y0068600D01*
X0021346Y0069592D01*
X0021346Y0079600D01*
X0023346Y0081600D01*
X0021346Y0083600D01*
X0021346Y0084100D01*
X0021346Y0098608D01*
X0016594Y0098679D02*
X0015746Y0098679D01*
X0015746Y0097481D02*
X0016594Y0097481D01*
X0016594Y0096282D02*
X0015746Y0096282D01*
X0015746Y0095084D02*
X0016594Y0095084D01*
X0017027Y0093885D02*
X0015746Y0093885D01*
X0015746Y0092687D02*
X0018946Y0092687D01*
X0018946Y0091488D02*
X0015746Y0091488D01*
X0015746Y0090290D02*
X0017117Y0090290D01*
X0016594Y0089091D02*
X0015746Y0089091D01*
X0015746Y0087893D02*
X0016594Y0087893D01*
X0016594Y0086694D02*
X0015746Y0086694D01*
X0015746Y0085496D02*
X0016594Y0085496D01*
X0016594Y0084297D02*
X0015746Y0084297D01*
X0015746Y0083099D02*
X0016594Y0083099D01*
X0016594Y0081900D02*
X0015746Y0081900D01*
X0015746Y0080702D02*
X0016594Y0080702D01*
X0016594Y0079503D02*
X0015746Y0079503D01*
X0015746Y0078305D02*
X0016722Y0078305D01*
X0015746Y0077106D02*
X0018946Y0077106D01*
X0018946Y0075908D02*
X0015746Y0075908D01*
X0015746Y0074709D02*
X0017422Y0074709D01*
X0016594Y0073511D02*
X0015746Y0073511D01*
X0015746Y0072312D02*
X0016594Y0072312D01*
X0016594Y0071114D02*
X0015746Y0071114D01*
X0016594Y0071114D01*
X0016594Y0069915D02*
X0015746Y0069915D01*
X0016594Y0069915D01*
X0016594Y0068717D02*
X0015746Y0068717D01*
X0016594Y0068717D01*
X0016594Y0067518D02*
X0015746Y0067518D01*
X0016594Y0067518D01*
X0016594Y0066320D02*
X0015746Y0066320D01*
X0016594Y0066320D01*
X0016776Y0065121D02*
X0015746Y0065121D01*
X0016776Y0065121D01*
X0015746Y0063923D02*
X0022088Y0063923D01*
X0015746Y0063923D01*
X0015746Y0062724D02*
X0022088Y0062724D01*
X0015746Y0062724D01*
X0015746Y0061526D02*
X0022088Y0061526D01*
X0015746Y0061526D01*
X0015746Y0060327D02*
X0022088Y0060327D01*
X0015746Y0060327D01*
X0015746Y0059129D02*
X0022088Y0059129D01*
X0015746Y0059129D01*
X0015746Y0057930D02*
X0022088Y0057930D01*
X0015746Y0057930D01*
X0015746Y0056732D02*
X0022088Y0056732D01*
X0015746Y0056732D01*
X0015746Y0055533D02*
X0022088Y0055533D01*
X0022088Y0054334D02*
X0015746Y0054334D01*
X0015746Y0053136D02*
X0022088Y0053136D01*
X0022088Y0051937D02*
X0015746Y0051937D01*
X0015746Y0050739D02*
X0020883Y0050739D01*
X0019932Y0049540D02*
X0015746Y0049540D01*
X0015746Y0048342D02*
X0019932Y0048342D01*
X0019932Y0047143D02*
X0015746Y0047143D01*
X0015746Y0045945D02*
X0019932Y0045945D01*
X0019932Y0044746D02*
X0015746Y0044746D01*
X0015746Y0043548D02*
X0019932Y0043548D01*
X0020065Y0042349D02*
X0015746Y0042349D01*
X0015746Y0041151D02*
X0022088Y0041151D01*
X0022088Y0039952D02*
X0015746Y0039952D01*
X0015746Y0038754D02*
X0022088Y0038754D01*
X0022088Y0037555D02*
X0015746Y0037555D01*
X0015746Y0036357D02*
X0022088Y0036357D01*
X0022088Y0035158D02*
X0015746Y0035158D01*
X0015746Y0033960D02*
X0022088Y0033960D01*
X0022088Y0032761D02*
X0015746Y0032761D01*
X0015746Y0031563D02*
X0022088Y0031563D01*
X0022088Y0030364D02*
X0015746Y0030364D01*
X0015746Y0029166D02*
X0022088Y0029166D01*
X0022088Y0027967D02*
X0015746Y0027967D01*
X0015746Y0026769D02*
X0022088Y0026769D01*
X0022088Y0025570D02*
X0015746Y0025570D01*
X0015746Y0024372D02*
X0022088Y0024372D01*
X0022088Y0023173D02*
X0015746Y0023173D01*
X0015746Y0021975D02*
X0022088Y0021975D01*
X0022088Y0020776D02*
X0015746Y0020776D01*
X0015746Y0019578D02*
X0022088Y0019578D01*
X0022088Y0018379D02*
X0015746Y0018379D01*
X0015746Y0017181D02*
X0020395Y0017181D01*
X0019932Y0015982D02*
X0015746Y0015982D01*
X0015746Y0014784D02*
X0019932Y0014784D01*
X0019932Y0013585D02*
X0015746Y0013585D01*
X0015746Y0012387D02*
X0019932Y0012387D01*
X0019932Y0011188D02*
X0015746Y0011188D01*
X0015746Y0009990D02*
X0019932Y0009990D01*
X0020553Y0008791D02*
X0015746Y0008791D01*
X0026888Y0024372D02*
X0057098Y0024372D01*
X0057098Y0025570D02*
X0026888Y0025570D01*
X0026888Y0026769D02*
X0057977Y0026769D01*
X0055893Y0029166D02*
X0026888Y0029166D01*
X0026888Y0030364D02*
X0054695Y0030364D01*
X0053496Y0031563D02*
X0026888Y0031563D01*
X0026888Y0032761D02*
X0053476Y0032761D01*
X0053476Y0033960D02*
X0026888Y0033960D01*
X0026888Y0035158D02*
X0053476Y0035158D01*
X0054216Y0036357D02*
X0026888Y0036357D01*
X0026888Y0037555D02*
X0055414Y0037555D01*
X0056305Y0038754D02*
X0026888Y0038754D01*
X0026888Y0039952D02*
X0055107Y0039952D01*
X0053908Y0041151D02*
X0026888Y0041151D01*
X0028911Y0042349D02*
X0028924Y0042349D01*
X0037769Y0042349D02*
X0037782Y0042349D01*
X0046628Y0042349D02*
X0053476Y0042349D01*
X0053476Y0043548D02*
X0046761Y0043548D01*
X0046761Y0044746D02*
X0053476Y0044746D01*
X0053804Y0045945D02*
X0046761Y0045945D01*
X0046761Y0047143D02*
X0055003Y0047143D01*
X0056201Y0048342D02*
X0046761Y0048342D01*
X0046761Y0049540D02*
X0063346Y0049540D01*
X0063346Y0048342D02*
X0060492Y0048342D01*
X0061690Y0047143D02*
X0063346Y0047143D01*
X0063346Y0045945D02*
X0062889Y0045945D01*
X0063217Y0044746D02*
X0063346Y0044746D01*
X0063346Y0043548D02*
X0063217Y0043548D01*
X0063217Y0042349D02*
X0063346Y0042349D01*
X0063346Y0050739D02*
X0045810Y0050739D01*
X0038599Y0050739D02*
X0036952Y0050739D01*
X0029741Y0050739D02*
X0028094Y0050739D01*
X0026888Y0051937D02*
X0063346Y0051937D01*
X0063346Y0053136D02*
X0026888Y0053136D01*
X0026888Y0054334D02*
X0063346Y0054334D01*
X0063346Y0055533D02*
X0026888Y0055533D01*
X0026888Y0056732D02*
X0063346Y0056732D01*
X0063346Y0057930D02*
X0026888Y0057930D01*
X0026888Y0059129D02*
X0063346Y0059129D01*
X0063346Y0060327D02*
X0026888Y0060327D01*
X0026888Y0061526D02*
X0063346Y0061526D01*
X0063346Y0062724D02*
X0026888Y0062724D01*
X0026888Y0063923D02*
X0063346Y0063923D01*
X0063346Y0065121D02*
X0026888Y0065121D01*
X0026729Y0066320D02*
X0063346Y0066320D01*
X0063346Y0067518D02*
X0026099Y0067518D01*
X0026099Y0068717D02*
X0063346Y0068717D01*
X0063346Y0069100D02*
X0063346Y0099100D01*
X0064016Y0099100D01*
X0078642Y0084474D01*
X0085453Y0084474D01*
X0082176Y0085496D02*
X0070203Y0085496D01*
X0069083Y0086694D02*
X0082176Y0086694D01*
X0082593Y0087893D02*
X0069083Y0087893D01*
X0069083Y0089091D02*
X0086104Y0089091D01*
X0086104Y0090290D02*
X0069083Y0090290D01*
X0069083Y0091488D02*
X0086104Y0091488D01*
X0086104Y0092687D02*
X0068451Y0092687D01*
X0066996Y0095641D02*
X0067360Y0095851D01*
X0067658Y0096149D01*
X0067869Y0096514D01*
X0067978Y0096921D01*
X0067978Y0098716D01*
X0064400Y0098716D01*
X0064400Y0099484D01*
X0067978Y0099484D01*
X0067978Y0101279D01*
X0067869Y0101686D01*
X0067658Y0102051D01*
X0067360Y0102349D01*
X0066996Y0102559D01*
X0066589Y0102668D01*
X0064400Y0102668D01*
X0064400Y0099484D01*
X0063631Y0099484D01*
X0063631Y0098716D01*
X0060054Y0098716D01*
X0060054Y0096921D01*
X0060163Y0096514D01*
X0060373Y0096149D01*
X0060671Y0095851D01*
X0061036Y0095641D01*
X0061443Y0095531D01*
X0063631Y0095531D01*
X0063631Y0098716D01*
X0064400Y0098716D01*
X0064400Y0095531D01*
X0066589Y0095531D01*
X0066996Y0095641D01*
X0067735Y0096282D02*
X0068618Y0096282D01*
X0068515Y0097481D02*
X0067978Y0097481D01*
X0067978Y0098679D02*
X0068515Y0098679D01*
X0068515Y0099878D02*
X0067978Y0099878D01*
X0067978Y0101076D02*
X0068515Y0101076D01*
X0068976Y0102275D02*
X0067434Y0102275D01*
X0064400Y0102275D02*
X0063631Y0102275D01*
X0063631Y0102668D02*
X0061443Y0102668D01*
X0061036Y0102559D01*
X0060671Y0102349D01*
X0060373Y0102051D01*
X0060163Y0101686D01*
X0060054Y0101279D01*
X0060054Y0099484D01*
X0063631Y0099484D01*
X0063631Y0102668D01*
X0063631Y0101076D02*
X0064400Y0101076D01*
X0064400Y0099878D02*
X0063631Y0099878D01*
X0064016Y0099100D02*
X0059024Y0104092D01*
X0059024Y0113600D01*
X0073096Y0113600D01*
X0073346Y0113350D01*
X0070246Y0113350D01*
X0070246Y0113004D01*
X0070343Y0112521D01*
X0070531Y0112066D01*
X0070736Y0111758D01*
X0070578Y0111600D01*
X0070666Y0111863D02*
X0064364Y0111863D01*
X0064364Y0114260D02*
X0070376Y0114260D01*
X0070343Y0114179D02*
X0070246Y0113696D01*
X0070246Y0113350D01*
X0073346Y0113350D01*
X0073346Y0113350D01*
X0073346Y0115950D01*
X0072500Y0115950D01*
X0072017Y0115854D01*
X0071562Y0115665D01*
X0071153Y0115392D01*
X0070805Y0115044D01*
X0070531Y0114634D01*
X0070343Y0114179D01*
X0070246Y0113062D02*
X0059624Y0113062D01*
X0059624Y0114260D02*
X0058424Y0114260D01*
X0058424Y0115459D02*
X0059624Y0115459D01*
X0059624Y0116657D02*
X0058424Y0116657D01*
X0058424Y0117856D02*
X0059624Y0117856D01*
X0059624Y0119054D02*
X0058424Y0119054D01*
X0058424Y0120253D02*
X0059624Y0120253D01*
X0059624Y0121451D02*
X0058424Y0121451D01*
X0055509Y0122650D02*
X0070073Y0122650D01*
X0070046Y0122713D02*
X0070458Y0121721D01*
X0070736Y0121442D01*
X0070531Y0121134D01*
X0070343Y0120679D01*
X0070246Y0120196D01*
X0070246Y0119850D01*
X0070246Y0119504D01*
X0070343Y0119021D01*
X0070531Y0118566D01*
X0070805Y0118156D01*
X0071153Y0117808D01*
X0071562Y0117535D01*
X0072017Y0117346D01*
X0072500Y0117250D01*
X0073346Y0117250D01*
X0073346Y0119850D01*
X0070246Y0119850D01*
X0073346Y0119850D01*
X0073346Y0119850D01*
X0073347Y0119850D01*
X0076446Y0119850D01*
X0076446Y0120196D01*
X0076350Y0120679D01*
X0076238Y0120950D01*
X0078050Y0120950D01*
X0078050Y0119992D01*
X0079105Y0118938D01*
X0085320Y0118938D01*
X0086346Y0119964D01*
X0087373Y0118938D01*
X0093588Y0118938D01*
X0094643Y0119992D01*
X0094643Y0120700D01*
X0095616Y0120700D01*
X0096697Y0119619D01*
X0099995Y0119619D01*
X0102328Y0121951D01*
X0102328Y0125249D01*
X0099995Y0127581D01*
X0096697Y0127581D01*
X0094643Y0125526D01*
X0094643Y0126208D01*
X0093588Y0127262D01*
X0087373Y0127262D01*
X0086346Y0126236D01*
X0085320Y0127262D01*
X0079105Y0127262D01*
X0078050Y0126208D01*
X0078050Y0125750D01*
X0075449Y0125750D01*
X0074484Y0126150D01*
X0072209Y0126150D01*
X0071217Y0125739D01*
X0070458Y0124979D01*
X0070046Y0123987D01*
X0070046Y0122713D01*
X0070046Y0123848D02*
X0054492Y0123848D01*
X0053294Y0125047D02*
X0070525Y0125047D01*
X0073346Y0123350D02*
X0081963Y0123350D01*
X0082213Y0123100D01*
X0078050Y0120253D02*
X0076435Y0120253D01*
X0076446Y0119850D02*
X0073347Y0119850D01*
X0073347Y0119850D01*
X0073347Y0117250D01*
X0074193Y0117250D01*
X0074676Y0117346D01*
X0075131Y0117535D01*
X0075540Y0117808D01*
X0075888Y0118156D01*
X0076162Y0118566D01*
X0076350Y0119021D01*
X0076446Y0119504D01*
X0076446Y0119850D01*
X0076357Y0119054D02*
X0078988Y0119054D01*
X0075588Y0117856D02*
X0180946Y0117856D01*
X0180946Y0119054D02*
X0093704Y0119054D01*
X0094643Y0120253D02*
X0096064Y0120253D01*
X0097846Y0123100D02*
X0098346Y0123600D01*
X0097846Y0123100D02*
X0090480Y0123100D01*
X0086356Y0126245D02*
X0086337Y0126245D01*
X0094605Y0126245D02*
X0095362Y0126245D01*
X0096560Y0127444D02*
X0050897Y0127444D01*
X0052095Y0126245D02*
X0078088Y0126245D01*
X0070727Y0121451D02*
X0063868Y0121451D01*
X0064364Y0120253D02*
X0070258Y0120253D01*
X0070336Y0119054D02*
X0064364Y0119054D01*
X0064364Y0117856D02*
X0071105Y0117856D01*
X0073346Y0117856D02*
X0073347Y0117856D01*
X0073346Y0119054D02*
X0073347Y0119054D01*
X0073346Y0119850D02*
X0073346Y0113350D01*
X0073347Y0113350D01*
X0076446Y0113350D01*
X0076446Y0113696D01*
X0076350Y0114179D01*
X0076162Y0114634D01*
X0075888Y0115044D01*
X0075540Y0115392D01*
X0075131Y0115665D01*
X0074676Y0115854D01*
X0074193Y0115950D01*
X0073347Y0115950D01*
X0073347Y0113350D01*
X0073347Y0113350D01*
X0076446Y0113350D01*
X0076446Y0113004D01*
X0076350Y0112521D01*
X0076238Y0112250D01*
X0080455Y0112250D01*
X0080343Y0112521D01*
X0080246Y0113004D01*
X0080246Y0113350D01*
X0083346Y0113350D01*
X0083346Y0113350D01*
X0080246Y0113350D01*
X0080246Y0113696D01*
X0080343Y0114179D01*
X0080531Y0114634D01*
X0080805Y0115044D01*
X0081153Y0115392D01*
X0081562Y0115665D01*
X0082017Y0115854D01*
X0082500Y0115950D01*
X0083346Y0115950D01*
X0083346Y0113350D01*
X0083347Y0113350D01*
X0086446Y0113350D01*
X0086446Y0113696D01*
X0086350Y0114179D01*
X0086162Y0114634D01*
X0085888Y0115044D01*
X0085540Y0115392D01*
X0085131Y0115665D01*
X0084676Y0115854D01*
X0084193Y0115950D01*
X0083347Y0115950D01*
X0083347Y0113350D01*
X0083347Y0113350D01*
X0086446Y0113350D01*
X0086446Y0113004D01*
X0086350Y0112521D01*
X0086162Y0112066D01*
X0085956Y0111758D01*
X0086115Y0111600D01*
X0114266Y0111600D01*
X0114266Y0111633D01*
X0114375Y0112040D01*
X0114586Y0112405D01*
X0114884Y0112703D01*
X0115249Y0112914D01*
X0115655Y0113023D01*
X0118228Y0113023D01*
X0118228Y0111600D01*
X0118228Y0111600D01*
X0118228Y0113023D01*
X0120801Y0113023D01*
X0121208Y0112914D01*
X0121573Y0112703D01*
X0121871Y0112405D01*
X0122082Y0112040D01*
X0122191Y0111633D01*
X0122191Y0111600D01*
X0122191Y0110340D01*
X0118228Y0110340D01*
X0118228Y0110340D01*
X0118228Y0111863D02*
X0118228Y0111863D01*
X0114328Y0111863D02*
X0086026Y0111863D01*
X0086446Y0113062D02*
X0125195Y0113062D01*
X0124302Y0111863D02*
X0122129Y0111863D01*
X0122191Y0110665D02*
X0123346Y0110665D01*
X0123346Y0109466D02*
X0122191Y0109466D01*
X0121846Y0106600D02*
X0118228Y0106600D01*
X0121846Y0106600D02*
X0123346Y0105100D01*
X0123346Y0100100D01*
X0133596Y0100100D01*
X0138346Y0104850D01*
X0138980Y0104216D01*
X0138980Y0084100D01*
X0143143Y0084297D02*
X0150946Y0084297D01*
X0150946Y0083099D02*
X0143143Y0083099D01*
X0143143Y0081900D02*
X0150946Y0081900D01*
X0150946Y0080702D02*
X0142852Y0080702D01*
X0143143Y0080992D02*
X0143143Y0087208D01*
X0142088Y0088262D01*
X0141380Y0088262D01*
X0141380Y0103570D01*
X0141646Y0104213D01*
X0141646Y0105487D01*
X0141455Y0105950D01*
X0150602Y0105950D01*
X0150946Y0105606D01*
X0150946Y0070650D01*
X0144144Y0070650D01*
X0142394Y0068900D01*
X0141046Y0067553D01*
X0141046Y0059975D01*
X0136498Y0059975D01*
X0136339Y0059816D01*
X0134346Y0059816D01*
X0134346Y0060384D01*
X0137112Y0060384D01*
X0137112Y0060751D01*
X0136996Y0061333D01*
X0136769Y0061882D01*
X0136439Y0062376D01*
X0136019Y0062795D01*
X0135525Y0063125D01*
X0134976Y0063353D01*
X0134394Y0063468D01*
X0134346Y0063468D01*
X0134346Y0069100D01*
X0131366Y0069100D01*
X0131350Y0069179D01*
X0131162Y0069634D01*
X0130888Y0070044D01*
X0130540Y0070392D01*
X0130131Y0070665D01*
X0129676Y0070854D01*
X0129193Y0070950D01*
X0128347Y0070950D01*
X0128347Y0069100D01*
X0128346Y0069100D01*
X0128346Y0070950D01*
X0127500Y0070950D01*
X0127017Y0070854D01*
X0126562Y0070665D01*
X0126153Y0070392D01*
X0125805Y0070044D01*
X0125531Y0069634D01*
X0125343Y0069179D01*
X0125327Y0069100D01*
X0121366Y0069100D01*
X0121350Y0069179D01*
X0121162Y0069634D01*
X0120888Y0070044D01*
X0120540Y0070392D01*
X0120131Y0070665D01*
X0119676Y0070854D01*
X0119193Y0070950D01*
X0118347Y0070950D01*
X0118347Y0069100D01*
X0118346Y0069100D01*
X0118346Y0070950D01*
X0117500Y0070950D01*
X0117017Y0070854D01*
X0116562Y0070665D01*
X0116153Y0070392D01*
X0115805Y0070044D01*
X0115531Y0069634D01*
X0115343Y0069179D01*
X0115327Y0069100D01*
X0114317Y0069100D01*
X0114317Y0069102D01*
X0114241Y0069385D01*
X0114517Y0069661D01*
X0114517Y0082074D01*
X0117165Y0082074D01*
X0117208Y0081971D01*
X0117967Y0081211D01*
X0118959Y0080800D01*
X0120234Y0080800D01*
X0121226Y0081211D01*
X0121346Y0081332D01*
X0121467Y0081211D01*
X0122459Y0080800D01*
X0123734Y0080800D01*
X0124726Y0081211D01*
X0125215Y0081700D01*
X0126550Y0081700D01*
X0126550Y0080992D01*
X0127605Y0079938D01*
X0133820Y0079938D01*
X0134846Y0080964D01*
X0135873Y0079938D01*
X0142088Y0079938D01*
X0143143Y0080992D01*
X0143143Y0085496D02*
X0150946Y0085496D01*
X0150946Y0086694D02*
X0143143Y0086694D01*
X0142457Y0087893D02*
X0150946Y0087893D01*
X0150946Y0089091D02*
X0141380Y0089091D01*
X0141380Y0090290D02*
X0150946Y0090290D01*
X0150946Y0091488D02*
X0141380Y0091488D01*
X0141380Y0092687D02*
X0150946Y0092687D01*
X0150946Y0093885D02*
X0141380Y0093885D01*
X0141380Y0095084D02*
X0150946Y0095084D01*
X0150946Y0096282D02*
X0141380Y0096282D01*
X0141380Y0097481D02*
X0150946Y0097481D01*
X0150946Y0098679D02*
X0141380Y0098679D01*
X0141380Y0099878D02*
X0150946Y0099878D01*
X0150946Y0101076D02*
X0141380Y0101076D01*
X0141380Y0102275D02*
X0150946Y0102275D01*
X0150946Y0103473D02*
X0141380Y0103473D01*
X0141646Y0104672D02*
X0150946Y0104672D01*
X0150682Y0105870D02*
X0141488Y0105870D01*
X0138346Y0108350D02*
X0151596Y0108350D01*
X0153346Y0106600D01*
X0153346Y0068350D01*
X0156262Y0069915D02*
X0180946Y0069915D01*
X0180946Y0068717D02*
X0156646Y0068717D01*
X0156566Y0067518D02*
X0180946Y0067518D01*
X0180946Y0066320D02*
X0156302Y0066320D01*
X0156646Y0065121D02*
X0180946Y0065121D01*
X0180946Y0063923D02*
X0156526Y0063923D01*
X0155739Y0062724D02*
X0180946Y0062724D01*
X0180946Y0061526D02*
X0155674Y0061526D01*
X0156872Y0060327D02*
X0180946Y0060327D01*
X0180946Y0059129D02*
X0158071Y0059129D01*
X0158146Y0057930D02*
X0180946Y0057930D01*
X0180946Y0056732D02*
X0158146Y0056732D01*
X0158146Y0055533D02*
X0180946Y0055533D01*
X0180946Y0054334D02*
X0158274Y0054334D01*
X0159473Y0053136D02*
X0161628Y0053136D01*
X0165065Y0053136D02*
X0180946Y0053136D01*
X0180946Y0051937D02*
X0169216Y0051937D01*
X0173346Y0050739D02*
X0180946Y0050739D01*
X0180946Y0049540D02*
X0173800Y0049540D01*
X0174999Y0048342D02*
X0180946Y0048342D01*
X0180946Y0047143D02*
X0175719Y0047143D01*
X0175746Y0045945D02*
X0180946Y0045945D01*
X0180946Y0044746D02*
X0175746Y0044746D01*
X0175746Y0043548D02*
X0180946Y0043548D01*
X0180946Y0042349D02*
X0175746Y0042349D01*
X0175746Y0041151D02*
X0180946Y0041151D01*
X0180946Y0039952D02*
X0175746Y0039952D01*
X0176823Y0038754D02*
X0180946Y0038754D01*
X0180946Y0037555D02*
X0177328Y0037555D01*
X0177328Y0036357D02*
X0180946Y0036357D01*
X0180946Y0035158D02*
X0177328Y0035158D01*
X0176336Y0033960D02*
X0180946Y0033960D01*
X0180946Y0032761D02*
X0175138Y0032761D01*
X0173346Y0031563D02*
X0180946Y0031563D01*
X0180946Y0030364D02*
X0173346Y0030364D01*
X0173346Y0029166D02*
X0180946Y0029166D01*
X0180946Y0027967D02*
X0173346Y0027967D01*
X0173346Y0026769D02*
X0180946Y0026769D01*
X0180946Y0025570D02*
X0079337Y0025570D01*
X0079286Y0025761D02*
X0079076Y0026126D01*
X0078778Y0026424D01*
X0078413Y0026634D01*
X0078006Y0026743D01*
X0075639Y0026743D01*
X0075639Y0022200D01*
X0079395Y0022200D01*
X0079395Y0025354D01*
X0079286Y0025761D01*
X0079395Y0024372D02*
X0180946Y0024372D01*
X0180946Y0023173D02*
X0079395Y0023173D01*
X0079395Y0020776D02*
X0180946Y0020776D01*
X0180946Y0019578D02*
X0079395Y0019578D01*
X0079395Y0018379D02*
X0180946Y0018379D01*
X0180946Y0017181D02*
X0079137Y0017181D01*
X0075639Y0017181D02*
X0074439Y0017181D01*
X0074439Y0018379D02*
X0075639Y0018379D01*
X0075639Y0019578D02*
X0074439Y0019578D01*
X0074439Y0020776D02*
X0075639Y0020776D01*
X0075639Y0021975D02*
X0180946Y0021975D01*
X0180946Y0015982D02*
X0066467Y0015982D01*
X0066079Y0017181D02*
X0070942Y0017181D01*
X0070683Y0018379D02*
X0066209Y0018379D01*
X0066209Y0019578D02*
X0070683Y0019578D01*
X0070683Y0020776D02*
X0066209Y0020776D01*
X0066209Y0021975D02*
X0074439Y0021975D01*
X0074439Y0023173D02*
X0075639Y0023173D01*
X0075639Y0024372D02*
X0074439Y0024372D01*
X0074439Y0025570D02*
X0075639Y0025570D01*
X0073466Y0027967D02*
X0101349Y0027967D01*
X0100151Y0029166D02*
X0080517Y0029166D01*
X0081715Y0030364D02*
X0099365Y0030364D01*
X0099365Y0031563D02*
X0082914Y0031563D01*
X0078681Y0031563D02*
X0078011Y0031563D01*
X0078011Y0030364D02*
X0078681Y0030364D01*
X0078681Y0029166D02*
X0078011Y0029166D01*
X0076176Y0029166D02*
X0074665Y0029166D01*
X0072268Y0026769D02*
X0143346Y0026769D01*
X0143346Y0027967D02*
X0105344Y0027967D01*
X0106542Y0029166D02*
X0143346Y0029166D01*
X0143346Y0030364D02*
X0107328Y0030364D01*
X0107328Y0031563D02*
X0143346Y0031563D01*
X0143346Y0032761D02*
X0118346Y0032761D01*
X0118346Y0033960D02*
X0143346Y0033960D01*
X0143346Y0035158D02*
X0118346Y0035158D01*
X0118346Y0036357D02*
X0143346Y0036357D01*
X0143346Y0037555D02*
X0119570Y0037555D01*
X0120456Y0038754D02*
X0135970Y0038754D01*
X0134741Y0039952D02*
X0120646Y0039952D01*
X0120371Y0041151D02*
X0133543Y0041151D01*
X0132344Y0042349D02*
X0120496Y0042349D01*
X0120646Y0043548D02*
X0131146Y0043548D01*
X0131046Y0044746D02*
X0120332Y0044746D01*
X0118979Y0045945D02*
X0131046Y0045945D01*
X0131046Y0047143D02*
X0118346Y0047143D01*
X0118346Y0048342D02*
X0131046Y0048342D01*
X0131046Y0049540D02*
X0118346Y0049540D01*
X0118346Y0050739D02*
X0130057Y0050739D01*
X0133346Y0060100D02*
X0133346Y0066600D01*
X0131596Y0068350D01*
X0128346Y0068350D01*
X0118346Y0068350D01*
X0117970Y0068726D01*
X0111240Y0068726D01*
X0118346Y0068726D01*
X0118346Y0073100D01*
X0118346Y0069915D02*
X0118347Y0069915D01*
X0120974Y0069915D02*
X0125719Y0069915D01*
X0128346Y0069915D02*
X0128347Y0069915D01*
X0130974Y0069915D02*
X0143409Y0069915D01*
X0142210Y0068717D02*
X0134346Y0068717D01*
X0134346Y0067518D02*
X0141046Y0067518D01*
X0141046Y0066320D02*
X0134346Y0066320D01*
X0134346Y0065121D02*
X0141046Y0065121D01*
X0141046Y0063923D02*
X0134346Y0063923D01*
X0136090Y0062724D02*
X0141046Y0062724D01*
X0141046Y0061526D02*
X0136916Y0061526D01*
X0134346Y0060327D02*
X0141046Y0060327D01*
X0150946Y0071114D02*
X0114517Y0071114D01*
X0114517Y0072312D02*
X0150946Y0072312D01*
X0150946Y0073511D02*
X0114517Y0073511D01*
X0114517Y0074709D02*
X0150946Y0074709D01*
X0150946Y0075908D02*
X0114517Y0075908D01*
X0114517Y0077106D02*
X0150946Y0077106D01*
X0150946Y0078305D02*
X0114517Y0078305D01*
X0114517Y0079503D02*
X0150946Y0079503D01*
X0155746Y0079503D02*
X0180946Y0079503D01*
X0180946Y0078305D02*
X0155746Y0078305D01*
X0155746Y0077106D02*
X0180946Y0077106D01*
X0180946Y0075908D02*
X0155746Y0075908D01*
X0155746Y0074709D02*
X0180946Y0074709D01*
X0180946Y0073511D02*
X0155746Y0073511D01*
X0155746Y0072312D02*
X0180946Y0072312D01*
X0180946Y0071114D02*
X0155746Y0071114D01*
X0155746Y0080702D02*
X0180946Y0080702D01*
X0180946Y0081900D02*
X0155746Y0081900D01*
X0155746Y0083099D02*
X0180946Y0083099D01*
X0180946Y0084297D02*
X0155746Y0084297D01*
X0155746Y0085496D02*
X0180946Y0085496D01*
X0180946Y0086694D02*
X0155746Y0086694D01*
X0155746Y0087893D02*
X0180946Y0087893D01*
X0180946Y0089091D02*
X0155746Y0089091D01*
X0155746Y0090290D02*
X0180946Y0090290D01*
X0180946Y0091488D02*
X0155746Y0091488D01*
X0155746Y0092687D02*
X0180946Y0092687D01*
X0180946Y0093885D02*
X0155746Y0093885D01*
X0155746Y0095084D02*
X0180946Y0095084D01*
X0180946Y0096282D02*
X0155746Y0096282D01*
X0155746Y0097481D02*
X0180946Y0097481D01*
X0180946Y0098679D02*
X0155746Y0098679D01*
X0155746Y0099878D02*
X0180946Y0099878D01*
X0180946Y0101076D02*
X0155746Y0101076D01*
X0155746Y0102275D02*
X0180946Y0102275D01*
X0180946Y0103473D02*
X0155746Y0103473D01*
X0155746Y0104672D02*
X0180946Y0104672D01*
X0180946Y0105870D02*
X0155746Y0105870D01*
X0155746Y0107069D02*
X0180946Y0107069D01*
X0180946Y0108268D02*
X0155073Y0108268D01*
X0153875Y0109466D02*
X0180946Y0109466D01*
X0180946Y0110665D02*
X0153346Y0110665D01*
X0138228Y0111863D02*
X0180946Y0111863D01*
X0180946Y0113062D02*
X0131734Y0113062D01*
X0128465Y0110340D02*
X0136356Y0110340D01*
X0138346Y0108350D01*
X0123346Y0100100D02*
X0123346Y0094850D01*
X0120376Y0096282D02*
X0112696Y0096282D01*
X0112690Y0097481D02*
X0120335Y0097481D01*
X0119365Y0098679D02*
X0112215Y0098679D01*
X0110097Y0098679D02*
X0110096Y0098679D01*
X0110096Y0097481D02*
X0110097Y0097481D01*
X0110096Y0096600D02*
X0110096Y0101600D01*
X0104187Y0098679D02*
X0096646Y0098679D01*
X0096343Y0097481D02*
X0103796Y0097481D01*
X0103796Y0096282D02*
X0095045Y0096282D01*
X0094841Y0095084D02*
X0103820Y0095084D01*
X0103820Y0093885D02*
X0094841Y0093885D01*
X0092441Y0097944D02*
X0092441Y0089494D01*
X0090472Y0089494D02*
X0090472Y0084474D01*
X0092346Y0082600D01*
X0098346Y0076600D01*
X0096378Y0078569D01*
X0093346Y0078569D01*
X0094409Y0077506D01*
X0094409Y0063706D01*
X0092441Y0063706D02*
X0092441Y0052694D01*
X0092346Y0052600D01*
X0100819Y0046242D02*
X0102591Y0046242D01*
X0109874Y0038958D01*
X0116455Y0038958D01*
X0117346Y0039850D01*
X0109874Y0038958D02*
X0106016Y0035100D01*
X0103346Y0035100D01*
X0103346Y0031600D01*
X0103346Y0035100D02*
X0090846Y0035100D01*
X0089346Y0036600D01*
X0089346Y0041600D01*
X0091096Y0043350D01*
X0093346Y0043350D01*
X0070741Y0025570D02*
X0068146Y0025570D01*
X0067678Y0024372D02*
X0070683Y0024372D01*
X0070683Y0023173D02*
X0066479Y0023173D01*
X0063227Y0027967D02*
X0026888Y0027967D01*
X0060800Y0029166D02*
X0062028Y0029166D01*
X0070097Y0015700D02*
X0070097Y0012600D01*
X0072696Y0012600D01*
X0070097Y0012600D01*
X0070097Y0012600D01*
X0070096Y0012600D01*
X0070097Y0012600D01*
X0070097Y0009500D01*
X0070443Y0009500D01*
X0070926Y0009596D01*
X0071381Y0009785D01*
X0071790Y0010058D01*
X0072138Y0010406D01*
X0072412Y0010816D01*
X0072600Y0011271D01*
X0072696Y0011754D01*
X0072696Y0012600D01*
X0072696Y0013446D01*
X0072600Y0013929D01*
X0072412Y0014384D01*
X0072138Y0014794D01*
X0071790Y0015142D01*
X0071381Y0015415D01*
X0070926Y0015604D01*
X0070443Y0015700D01*
X0070097Y0015700D01*
X0070096Y0014784D02*
X0070097Y0014784D01*
X0070096Y0013585D02*
X0070097Y0013585D01*
X0070096Y0012387D02*
X0070097Y0012387D01*
X0070096Y0011188D02*
X0070097Y0011188D01*
X0070096Y0009990D02*
X0070097Y0009990D01*
X0071688Y0009990D02*
X0180946Y0009990D01*
X0180946Y0011188D02*
X0072566Y0011188D01*
X0072696Y0012387D02*
X0180946Y0012387D01*
X0180946Y0013585D02*
X0072669Y0013585D01*
X0072145Y0014784D02*
X0180946Y0014784D01*
X0173346Y0036600D02*
X0165096Y0036600D01*
X0173346Y0036600D02*
X0173346Y0046600D01*
X0172362Y0047584D01*
X0166890Y0047584D01*
X0143137Y0038754D02*
X0142062Y0038754D01*
X0118346Y0064850D02*
X0113148Y0064850D01*
X0111240Y0066757D01*
X0108189Y0066757D01*
X0103846Y0071100D01*
X0114517Y0069915D02*
X0115719Y0069915D01*
X0114517Y0080702D02*
X0126841Y0080702D01*
X0123096Y0084100D02*
X0130713Y0084100D01*
X0134584Y0080702D02*
X0135109Y0080702D01*
X0123346Y0091350D02*
X0116148Y0091350D01*
X0111240Y0086443D01*
X0111240Y0084474D02*
X0119222Y0084474D01*
X0119596Y0084100D01*
X0117278Y0081900D02*
X0114517Y0081900D01*
X0106220Y0082600D02*
X0106220Y0089494D01*
X0106220Y0096224D01*
X0106596Y0096600D01*
X0108620Y0093885D02*
X0108661Y0093885D01*
X0108620Y0092687D02*
X0114090Y0092687D01*
X0111532Y0093885D02*
X0120182Y0093885D01*
X0120046Y0095084D02*
X0112523Y0095084D01*
X0110097Y0095084D02*
X0110096Y0095084D01*
X0110096Y0096282D02*
X0110097Y0096282D01*
X0110096Y0096600D02*
X0110096Y0091401D01*
X0108189Y0089494D01*
X0110096Y0093885D02*
X0110097Y0093885D01*
X0106220Y0082600D02*
X0103846Y0082600D01*
X0093346Y0078569D02*
X0085453Y0078569D01*
X0085453Y0076600D02*
X0070846Y0076600D01*
X0066846Y0073100D01*
X0063346Y0071114D02*
X0063168Y0071114D01*
X0063346Y0069915D02*
X0062312Y0069915D01*
X0063346Y0069100D02*
X0065846Y0066600D01*
X0068346Y0066600D01*
X0076378Y0074631D01*
X0085453Y0074631D01*
X0088504Y0089494D02*
X0088504Y0093693D01*
X0083346Y0098850D01*
X0083096Y0099100D01*
X0072677Y0099100D01*
X0076736Y0096282D02*
X0081648Y0096282D01*
X0083718Y0095084D02*
X0057115Y0095084D01*
X0057115Y0096282D02*
X0060296Y0096282D01*
X0060054Y0097481D02*
X0056885Y0097481D01*
X0055746Y0098679D02*
X0060054Y0098679D01*
X0060054Y0099878D02*
X0055746Y0099878D01*
X0055746Y0101076D02*
X0060054Y0101076D01*
X0060597Y0102275D02*
X0055746Y0102275D01*
X0055746Y0103473D02*
X0080248Y0103473D01*
X0080046Y0102275D02*
X0076378Y0102275D01*
X0074529Y0107069D02*
X0080946Y0107069D01*
X0080946Y0105870D02*
X0063990Y0105870D01*
X0059624Y0105870D02*
X0058424Y0105870D01*
X0058424Y0107069D02*
X0059624Y0107069D01*
X0059624Y0108268D02*
X0058424Y0108268D01*
X0058424Y0109466D02*
X0059624Y0109466D01*
X0059624Y0110665D02*
X0058424Y0110665D01*
X0064364Y0115459D02*
X0071253Y0115459D01*
X0073346Y0115459D02*
X0073347Y0115459D01*
X0073346Y0114260D02*
X0073347Y0114260D01*
X0073346Y0113350D02*
X0083346Y0113350D01*
X0083596Y0113100D01*
X0107346Y0113100D01*
X0110096Y0110350D01*
X0114266Y0110665D02*
X0086573Y0110665D01*
X0086646Y0109466D02*
X0095582Y0109466D01*
X0094384Y0108268D02*
X0086255Y0108268D01*
X0085746Y0107069D02*
X0094365Y0107069D01*
X0094223Y0105870D02*
X0085746Y0105870D01*
X0080946Y0104672D02*
X0055746Y0104672D01*
X0050946Y0104672D02*
X0045746Y0104672D01*
X0045746Y0103473D02*
X0050946Y0103473D01*
X0050946Y0102275D02*
X0045746Y0102275D01*
X0045746Y0101076D02*
X0050946Y0101076D01*
X0050946Y0099878D02*
X0045746Y0099878D01*
X0045746Y0098679D02*
X0050946Y0098679D01*
X0049808Y0097481D02*
X0045746Y0097481D01*
X0045746Y0096282D02*
X0049578Y0096282D01*
X0049578Y0095084D02*
X0045746Y0095084D01*
X0045746Y0093885D02*
X0049578Y0093885D01*
X0049578Y0092687D02*
X0045746Y0092687D01*
X0045746Y0091488D02*
X0049913Y0091488D01*
X0050491Y0090290D02*
X0045402Y0090290D01*
X0044232Y0089091D02*
X0049578Y0089091D01*
X0043346Y0091600D02*
X0043346Y0106600D01*
X0042752Y0107194D01*
X0028346Y0107194D01*
X0022595Y0111863D02*
X0015746Y0111863D01*
X0015746Y0110665D02*
X0021822Y0110665D01*
X0021822Y0109466D02*
X0015746Y0109466D01*
X0015746Y0108268D02*
X0021822Y0108268D01*
X0021822Y0107069D02*
X0015746Y0107069D01*
X0015746Y0105870D02*
X0021822Y0105870D01*
X0021822Y0104672D02*
X0015746Y0104672D01*
X0015746Y0103473D02*
X0017170Y0103473D01*
X0016594Y0102275D02*
X0015746Y0102275D01*
X0015746Y0101076D02*
X0016594Y0101076D01*
X0016594Y0099878D02*
X0015746Y0099878D01*
X0015746Y0113062D02*
X0038129Y0113062D01*
X0038129Y0114260D02*
X0034021Y0114260D01*
X0034871Y0115459D02*
X0038129Y0115459D01*
X0038129Y0116657D02*
X0034871Y0116657D01*
X0034871Y0117856D02*
X0038129Y0117856D01*
X0038129Y0119054D02*
X0034871Y0119054D01*
X0034871Y0120253D02*
X0038129Y0120253D01*
X0038542Y0121451D02*
X0034871Y0121451D01*
X0034871Y0122650D02*
X0048903Y0122650D01*
X0048797Y0121451D02*
X0050101Y0121451D01*
X0050946Y0120253D02*
X0049209Y0120253D01*
X0049209Y0119054D02*
X0050946Y0119054D01*
X0050946Y0117856D02*
X0049209Y0117856D01*
X0049209Y0116657D02*
X0050946Y0116657D01*
X0050946Y0115459D02*
X0049209Y0115459D01*
X0049209Y0114260D02*
X0050946Y0114260D01*
X0050946Y0113062D02*
X0049209Y0113062D01*
X0049209Y0111863D02*
X0050946Y0111863D01*
X0050946Y0110665D02*
X0049209Y0110665D01*
X0049209Y0109466D02*
X0050946Y0109466D01*
X0050946Y0108268D02*
X0049209Y0108268D01*
X0049209Y0107069D02*
X0050946Y0107069D01*
X0050946Y0105870D02*
X0048918Y0105870D01*
X0043346Y0106600D02*
X0043346Y0111600D01*
X0043346Y0113277D01*
X0043669Y0113600D01*
X0038129Y0111863D02*
X0034097Y0111863D01*
X0028346Y0119006D02*
X0028346Y0126600D01*
X0048346Y0126600D01*
X0053346Y0121600D01*
X0053346Y0094537D01*
X0057115Y0093885D02*
X0084917Y0093885D01*
X0092441Y0097944D02*
X0093346Y0098850D01*
X0080246Y0113062D02*
X0076446Y0113062D01*
X0076317Y0114260D02*
X0080376Y0114260D01*
X0081253Y0115459D02*
X0075440Y0115459D01*
X0083346Y0115459D02*
X0083347Y0115459D01*
X0083346Y0114260D02*
X0083347Y0114260D01*
X0085440Y0115459D02*
X0180946Y0115459D01*
X0180946Y0116657D02*
X0064364Y0116657D01*
X0047704Y0123848D02*
X0033923Y0123848D01*
X0030736Y0129841D02*
X0180946Y0129841D01*
X0180946Y0131039D02*
X0015746Y0131039D01*
X0015746Y0129841D02*
X0025957Y0129841D01*
X0024759Y0128642D02*
X0015746Y0128642D01*
X0015746Y0127444D02*
X0024365Y0127444D01*
X0024365Y0126245D02*
X0015746Y0126245D01*
X0015746Y0125047D02*
X0024365Y0125047D01*
X0022770Y0123848D02*
X0015746Y0123848D01*
X0015746Y0122650D02*
X0021822Y0122650D01*
X0021822Y0121451D02*
X0015746Y0121451D01*
X0015746Y0120253D02*
X0021822Y0120253D01*
X0021822Y0119054D02*
X0015746Y0119054D01*
X0015746Y0117856D02*
X0021822Y0117856D01*
X0021822Y0116657D02*
X0015746Y0116657D01*
X0015746Y0115459D02*
X0021822Y0115459D01*
X0022672Y0114260D02*
X0015746Y0114260D01*
X0015746Y0132238D02*
X0180946Y0132238D01*
X0180946Y0133436D02*
X0015746Y0133436D01*
X0049688Y0128642D02*
X0180946Y0128642D01*
X0180946Y0127444D02*
X0100133Y0127444D01*
X0101331Y0126245D02*
X0180946Y0126245D01*
X0180946Y0125047D02*
X0102328Y0125047D01*
X0102328Y0123848D02*
X0180946Y0123848D01*
X0180946Y0122650D02*
X0102328Y0122650D01*
X0101828Y0121451D02*
X0180946Y0121451D01*
X0180946Y0120253D02*
X0100629Y0120253D01*
X0087256Y0119054D02*
X0085437Y0119054D01*
X0086317Y0114260D02*
X0180946Y0114260D01*
X0064400Y0098679D02*
X0063631Y0098679D01*
X0063631Y0097481D02*
X0064400Y0097481D01*
X0064400Y0096282D02*
X0063631Y0096282D01*
X0063557Y0092687D02*
X0063136Y0092687D01*
X0058242Y0092687D02*
X0057115Y0092687D01*
X0056780Y0091488D02*
X0057609Y0091488D01*
X0057609Y0090290D02*
X0056202Y0090290D01*
X0057115Y0089091D02*
X0057609Y0089091D01*
X0057609Y0087893D02*
X0057115Y0087893D01*
X0057115Y0086694D02*
X0057609Y0086694D01*
X0043346Y0091600D02*
X0040965Y0089218D01*
X0032075Y0089218D01*
X0023346Y0081600D02*
X0025965Y0078982D01*
X0032075Y0078982D01*
X0042609Y0078900D01*
X0048346Y0073163D01*
X0059783Y0073163D01*
X0059846Y0073100D01*
X0057381Y0069915D02*
X0051581Y0069915D01*
X0045112Y0069915D02*
X0026099Y0069915D01*
X0026099Y0071114D02*
X0044578Y0071114D01*
X0068504Y0009990D02*
X0068505Y0009990D01*
D12*
X0069996Y0013200D02*
X0070196Y0013200D01*
X0070196Y0012000D01*
X0069996Y0012000D01*
X0069996Y0013200D01*
X0066696Y0013200D02*
X0066496Y0013200D01*
X0066696Y0013200D02*
X0066696Y0012000D01*
X0066496Y0012000D01*
X0066496Y0013200D01*
X0092746Y0039750D02*
X0092746Y0039950D01*
X0093946Y0039950D01*
X0093946Y0039750D01*
X0092746Y0039750D01*
X0092746Y0043250D02*
X0092746Y0043450D01*
X0093946Y0043450D01*
X0093946Y0043250D01*
X0092746Y0043250D01*
X0117946Y0043450D02*
X0117946Y0043250D01*
X0116746Y0043250D01*
X0116746Y0043450D01*
X0117946Y0043450D01*
X0117946Y0039950D02*
X0117946Y0039750D01*
X0116746Y0039750D01*
X0116746Y0039950D01*
X0117946Y0039950D01*
X0117746Y0064750D02*
X0117746Y0064950D01*
X0118946Y0064950D01*
X0118946Y0064750D01*
X0117746Y0064750D01*
X0117746Y0068250D02*
X0117746Y0068450D01*
X0118946Y0068450D01*
X0118946Y0068250D01*
X0117746Y0068250D01*
X0128946Y0068250D02*
X0128946Y0068450D01*
X0128946Y0068250D02*
X0127746Y0068250D01*
X0127746Y0068450D01*
X0128946Y0068450D01*
X0128946Y0064950D02*
X0128946Y0064750D01*
X0127746Y0064750D01*
X0127746Y0064950D01*
X0128946Y0064950D01*
X0153946Y0064950D02*
X0153946Y0064750D01*
X0152746Y0064750D01*
X0152746Y0064950D01*
X0153946Y0064950D01*
X0153946Y0068250D02*
X0153946Y0068450D01*
X0153946Y0068250D02*
X0152746Y0068250D01*
X0152746Y0068450D01*
X0153946Y0068450D01*
X0123196Y0083500D02*
X0122996Y0083500D01*
X0122996Y0084700D01*
X0123196Y0084700D01*
X0123196Y0083500D01*
X0119696Y0083500D02*
X0119496Y0083500D01*
X0119496Y0084700D01*
X0119696Y0084700D01*
X0119696Y0083500D01*
X0123946Y0091250D02*
X0123946Y0091450D01*
X0123946Y0091250D02*
X0122746Y0091250D01*
X0122746Y0091450D01*
X0123946Y0091450D01*
X0123946Y0094750D02*
X0123946Y0094950D01*
X0123946Y0094750D02*
X0122746Y0094750D01*
X0122746Y0094950D01*
X0123946Y0094950D01*
X0137746Y0104750D02*
X0137746Y0104950D01*
X0138946Y0104950D01*
X0138946Y0104750D01*
X0137746Y0104750D01*
X0137746Y0108250D02*
X0137746Y0108450D01*
X0138946Y0108450D01*
X0138946Y0108250D01*
X0137746Y0108250D01*
X0110196Y0097200D02*
X0109996Y0097200D01*
X0110196Y0097200D02*
X0110196Y0096000D01*
X0109996Y0096000D01*
X0109996Y0097200D01*
X0106696Y0097200D02*
X0106496Y0097200D01*
X0106696Y0097200D02*
X0106696Y0096000D01*
X0106496Y0096000D01*
X0106496Y0097200D01*
X0093946Y0098750D02*
X0093946Y0098950D01*
X0093946Y0098750D02*
X0092746Y0098750D01*
X0092746Y0098950D01*
X0093946Y0098950D01*
X0093946Y0102250D02*
X0093946Y0102450D01*
X0093946Y0102250D02*
X0092746Y0102250D01*
X0092746Y0102450D01*
X0093946Y0102450D01*
X0083946Y0102450D02*
X0083946Y0102250D01*
X0082746Y0102250D01*
X0082746Y0102450D01*
X0083946Y0102450D01*
X0083946Y0098950D02*
X0083946Y0098750D01*
X0082746Y0098750D01*
X0082746Y0098950D01*
X0083946Y0098950D01*
X0082746Y0109750D02*
X0082746Y0109950D01*
X0083946Y0109950D01*
X0083946Y0109750D01*
X0082746Y0109750D01*
X0082746Y0113250D02*
X0082746Y0113450D01*
X0083946Y0113450D01*
X0083946Y0113250D01*
X0082746Y0113250D01*
X0073946Y0113250D02*
X0073946Y0113450D01*
X0073946Y0113250D02*
X0072746Y0113250D01*
X0072746Y0113450D01*
X0073946Y0113450D01*
X0073946Y0109950D02*
X0073946Y0109750D01*
X0072746Y0109750D01*
X0072746Y0109950D01*
X0073946Y0109950D01*
X0073946Y0119750D02*
X0073946Y0119950D01*
X0073946Y0119750D02*
X0072746Y0119750D01*
X0072746Y0119950D01*
X0073946Y0119950D01*
X0073946Y0123250D02*
X0073946Y0123450D01*
X0073946Y0123250D02*
X0072746Y0123250D01*
X0072746Y0123450D01*
X0073946Y0123450D01*
X0161496Y0036000D02*
X0161696Y0036000D01*
X0161496Y0036000D02*
X0161496Y0037200D01*
X0161696Y0037200D01*
X0161696Y0036000D01*
X0164996Y0036000D02*
X0165196Y0036000D01*
X0164996Y0036000D02*
X0164996Y0037200D01*
X0165196Y0037200D01*
X0165196Y0036000D01*
X0152746Y0033450D02*
X0152746Y0033250D01*
X0152746Y0033450D02*
X0153946Y0033450D01*
X0153946Y0033250D01*
X0152746Y0033250D01*
X0152746Y0029950D02*
X0152746Y0029750D01*
X0152746Y0029950D02*
X0153946Y0029950D01*
X0153946Y0029750D01*
X0152746Y0029750D01*
D13*
X0028346Y0107194D03*
X0028346Y0119006D03*
D14*
X0059493Y0073850D02*
X0059493Y0072350D01*
X0059493Y0073850D02*
X0060199Y0073850D01*
X0060199Y0072350D01*
X0059493Y0072350D01*
X0066493Y0072350D02*
X0066493Y0073850D01*
X0067199Y0073850D01*
X0067199Y0072350D01*
X0066493Y0072350D01*
X0134096Y0060453D02*
X0134096Y0059747D01*
X0132596Y0059747D01*
X0132596Y0060453D01*
X0134096Y0060453D01*
X0134096Y0053453D02*
X0134096Y0052747D01*
X0132596Y0052747D01*
X0132596Y0053453D01*
X0134096Y0053453D01*
D15*
X0075039Y0021600D03*
X0061654Y0021600D03*
D16*
X0059024Y0113600D03*
X0043669Y0113600D03*
D17*
X0159803Y0049553D03*
X0159803Y0047584D03*
X0159803Y0045616D03*
X0159803Y0043647D03*
X0166890Y0043647D03*
X0166890Y0045616D03*
X0166890Y0047584D03*
X0166890Y0049553D03*
D18*
X0163346Y0050143D03*
X0163346Y0043057D03*
D19*
X0032075Y0078982D03*
X0032075Y0081541D03*
X0032075Y0084100D03*
X0032075Y0086659D03*
X0032075Y0089218D03*
D20*
X0028335Y0091580D02*
X0028337Y0091661D01*
X0028343Y0091743D01*
X0028353Y0091824D01*
X0028367Y0091904D01*
X0028384Y0091983D01*
X0028406Y0092062D01*
X0028431Y0092139D01*
X0028460Y0092216D01*
X0028493Y0092290D01*
X0028530Y0092363D01*
X0028569Y0092434D01*
X0028613Y0092503D01*
X0028659Y0092570D01*
X0028709Y0092634D01*
X0028762Y0092696D01*
X0028818Y0092756D01*
X0028876Y0092812D01*
X0028938Y0092866D01*
X0029002Y0092917D01*
X0029068Y0092964D01*
X0029136Y0093008D01*
X0029207Y0093049D01*
X0029279Y0093086D01*
X0029354Y0093120D01*
X0029429Y0093150D01*
X0029507Y0093176D01*
X0029585Y0093199D01*
X0029664Y0093217D01*
X0029744Y0093232D01*
X0029825Y0093243D01*
X0029906Y0093250D01*
X0029988Y0093253D01*
X0030069Y0093252D01*
X0030150Y0093247D01*
X0030231Y0093238D01*
X0030312Y0093225D01*
X0030392Y0093208D01*
X0030470Y0093188D01*
X0030548Y0093163D01*
X0030625Y0093135D01*
X0030700Y0093103D01*
X0030773Y0093068D01*
X0030844Y0093029D01*
X0030914Y0092986D01*
X0030981Y0092941D01*
X0031047Y0092892D01*
X0031109Y0092840D01*
X0031169Y0092784D01*
X0031226Y0092726D01*
X0031281Y0092666D01*
X0031332Y0092602D01*
X0031380Y0092537D01*
X0031425Y0092469D01*
X0031467Y0092399D01*
X0031505Y0092327D01*
X0031540Y0092253D01*
X0031571Y0092178D01*
X0031598Y0092101D01*
X0031621Y0092023D01*
X0031641Y0091944D01*
X0031657Y0091864D01*
X0031669Y0091783D01*
X0031677Y0091702D01*
X0031681Y0091621D01*
X0031681Y0091539D01*
X0031677Y0091458D01*
X0031669Y0091377D01*
X0031657Y0091296D01*
X0031641Y0091216D01*
X0031621Y0091137D01*
X0031598Y0091059D01*
X0031571Y0090982D01*
X0031540Y0090907D01*
X0031505Y0090833D01*
X0031467Y0090761D01*
X0031425Y0090691D01*
X0031380Y0090623D01*
X0031332Y0090558D01*
X0031281Y0090494D01*
X0031226Y0090434D01*
X0031169Y0090376D01*
X0031109Y0090320D01*
X0031047Y0090268D01*
X0030981Y0090219D01*
X0030914Y0090174D01*
X0030845Y0090131D01*
X0030773Y0090092D01*
X0030700Y0090057D01*
X0030625Y0090025D01*
X0030548Y0089997D01*
X0030470Y0089972D01*
X0030392Y0089952D01*
X0030312Y0089935D01*
X0030231Y0089922D01*
X0030150Y0089913D01*
X0030069Y0089908D01*
X0029988Y0089907D01*
X0029906Y0089910D01*
X0029825Y0089917D01*
X0029744Y0089928D01*
X0029664Y0089943D01*
X0029585Y0089961D01*
X0029507Y0089984D01*
X0029429Y0090010D01*
X0029354Y0090040D01*
X0029279Y0090074D01*
X0029207Y0090111D01*
X0029136Y0090152D01*
X0029068Y0090196D01*
X0029002Y0090243D01*
X0028938Y0090294D01*
X0028876Y0090348D01*
X0028818Y0090404D01*
X0028762Y0090464D01*
X0028709Y0090526D01*
X0028659Y0090590D01*
X0028613Y0090657D01*
X0028569Y0090726D01*
X0028530Y0090797D01*
X0028493Y0090870D01*
X0028460Y0090944D01*
X0028431Y0091021D01*
X0028406Y0091098D01*
X0028384Y0091177D01*
X0028367Y0091256D01*
X0028353Y0091336D01*
X0028343Y0091417D01*
X0028337Y0091499D01*
X0028335Y0091580D01*
X0028335Y0076620D02*
X0028337Y0076701D01*
X0028343Y0076783D01*
X0028353Y0076864D01*
X0028367Y0076944D01*
X0028384Y0077023D01*
X0028406Y0077102D01*
X0028431Y0077179D01*
X0028460Y0077256D01*
X0028493Y0077330D01*
X0028530Y0077403D01*
X0028569Y0077474D01*
X0028613Y0077543D01*
X0028659Y0077610D01*
X0028709Y0077674D01*
X0028762Y0077736D01*
X0028818Y0077796D01*
X0028876Y0077852D01*
X0028938Y0077906D01*
X0029002Y0077957D01*
X0029068Y0078004D01*
X0029136Y0078048D01*
X0029207Y0078089D01*
X0029279Y0078126D01*
X0029354Y0078160D01*
X0029429Y0078190D01*
X0029507Y0078216D01*
X0029585Y0078239D01*
X0029664Y0078257D01*
X0029744Y0078272D01*
X0029825Y0078283D01*
X0029906Y0078290D01*
X0029988Y0078293D01*
X0030069Y0078292D01*
X0030150Y0078287D01*
X0030231Y0078278D01*
X0030312Y0078265D01*
X0030392Y0078248D01*
X0030470Y0078228D01*
X0030548Y0078203D01*
X0030625Y0078175D01*
X0030700Y0078143D01*
X0030773Y0078108D01*
X0030844Y0078069D01*
X0030914Y0078026D01*
X0030981Y0077981D01*
X0031047Y0077932D01*
X0031109Y0077880D01*
X0031169Y0077824D01*
X0031226Y0077766D01*
X0031281Y0077706D01*
X0031332Y0077642D01*
X0031380Y0077577D01*
X0031425Y0077509D01*
X0031467Y0077439D01*
X0031505Y0077367D01*
X0031540Y0077293D01*
X0031571Y0077218D01*
X0031598Y0077141D01*
X0031621Y0077063D01*
X0031641Y0076984D01*
X0031657Y0076904D01*
X0031669Y0076823D01*
X0031677Y0076742D01*
X0031681Y0076661D01*
X0031681Y0076579D01*
X0031677Y0076498D01*
X0031669Y0076417D01*
X0031657Y0076336D01*
X0031641Y0076256D01*
X0031621Y0076177D01*
X0031598Y0076099D01*
X0031571Y0076022D01*
X0031540Y0075947D01*
X0031505Y0075873D01*
X0031467Y0075801D01*
X0031425Y0075731D01*
X0031380Y0075663D01*
X0031332Y0075598D01*
X0031281Y0075534D01*
X0031226Y0075474D01*
X0031169Y0075416D01*
X0031109Y0075360D01*
X0031047Y0075308D01*
X0030981Y0075259D01*
X0030914Y0075214D01*
X0030845Y0075171D01*
X0030773Y0075132D01*
X0030700Y0075097D01*
X0030625Y0075065D01*
X0030548Y0075037D01*
X0030470Y0075012D01*
X0030392Y0074992D01*
X0030312Y0074975D01*
X0030231Y0074962D01*
X0030150Y0074953D01*
X0030069Y0074948D01*
X0029988Y0074947D01*
X0029906Y0074950D01*
X0029825Y0074957D01*
X0029744Y0074968D01*
X0029664Y0074983D01*
X0029585Y0075001D01*
X0029507Y0075024D01*
X0029429Y0075050D01*
X0029354Y0075080D01*
X0029279Y0075114D01*
X0029207Y0075151D01*
X0029136Y0075192D01*
X0029068Y0075236D01*
X0029002Y0075283D01*
X0028938Y0075334D01*
X0028876Y0075388D01*
X0028818Y0075444D01*
X0028762Y0075504D01*
X0028709Y0075566D01*
X0028659Y0075630D01*
X0028613Y0075697D01*
X0028569Y0075766D01*
X0028530Y0075837D01*
X0028493Y0075910D01*
X0028460Y0075984D01*
X0028431Y0076061D01*
X0028406Y0076138D01*
X0028384Y0076217D01*
X0028367Y0076296D01*
X0028353Y0076376D01*
X0028343Y0076457D01*
X0028337Y0076539D01*
X0028335Y0076620D01*
D21*
X0021346Y0069592D03*
X0021346Y0098608D03*
D22*
X0021346Y0084100D03*
D23*
X0058346Y0043600D03*
X0068346Y0043600D03*
X0078346Y0043600D03*
X0078346Y0033600D03*
X0068346Y0033600D03*
X0058346Y0033600D03*
D24*
X0130713Y0084100D03*
X0138980Y0084100D03*
X0090480Y0123100D03*
X0082213Y0123100D03*
D25*
X0072677Y0099100D03*
X0064016Y0099100D03*
D26*
X0039862Y0048871D02*
X0039862Y0043399D01*
X0039862Y0048871D02*
X0044548Y0048871D01*
X0044548Y0043399D01*
X0039862Y0043399D01*
X0039862Y0044225D02*
X0044548Y0044225D01*
X0044548Y0045051D02*
X0039862Y0045051D01*
X0039862Y0045877D02*
X0044548Y0045877D01*
X0044548Y0046703D02*
X0039862Y0046703D01*
X0039862Y0047529D02*
X0044548Y0047529D01*
X0044548Y0048355D02*
X0039862Y0048355D01*
X0031003Y0048871D02*
X0031003Y0043399D01*
X0031003Y0048871D02*
X0035689Y0048871D01*
X0035689Y0043399D01*
X0031003Y0043399D01*
X0031003Y0044225D02*
X0035689Y0044225D01*
X0035689Y0045051D02*
X0031003Y0045051D01*
X0031003Y0045877D02*
X0035689Y0045877D01*
X0035689Y0046703D02*
X0031003Y0046703D01*
X0031003Y0047529D02*
X0035689Y0047529D01*
X0035689Y0048355D02*
X0031003Y0048355D01*
X0022145Y0048871D02*
X0022145Y0043399D01*
X0022145Y0048871D02*
X0026831Y0048871D01*
X0026831Y0043399D01*
X0022145Y0043399D01*
X0022145Y0044225D02*
X0026831Y0044225D01*
X0026831Y0045051D02*
X0022145Y0045051D01*
X0022145Y0045877D02*
X0026831Y0045877D01*
X0026831Y0046703D02*
X0022145Y0046703D01*
X0022145Y0047529D02*
X0026831Y0047529D01*
X0026831Y0048355D02*
X0022145Y0048355D01*
X0022145Y0015801D02*
X0022145Y0010329D01*
X0022145Y0015801D02*
X0026831Y0015801D01*
X0026831Y0010329D01*
X0022145Y0010329D01*
X0022145Y0011155D02*
X0026831Y0011155D01*
X0026831Y0011981D02*
X0022145Y0011981D01*
X0022145Y0012807D02*
X0026831Y0012807D01*
X0026831Y0013633D02*
X0022145Y0013633D01*
X0022145Y0014459D02*
X0026831Y0014459D01*
X0026831Y0015285D02*
X0022145Y0015285D01*
X0039862Y0015801D02*
X0039862Y0010329D01*
X0039862Y0015801D02*
X0044548Y0015801D01*
X0044548Y0010329D01*
X0039862Y0010329D01*
X0039862Y0011155D02*
X0044548Y0011155D01*
X0044548Y0011981D02*
X0039862Y0011981D01*
X0039862Y0012807D02*
X0044548Y0012807D01*
X0044548Y0013633D02*
X0039862Y0013633D01*
X0039862Y0014459D02*
X0044548Y0014459D01*
X0044548Y0015285D02*
X0039862Y0015285D01*
D27*
X0060689Y0080876D03*
X0060689Y0084025D03*
X0060689Y0087175D03*
X0060689Y0090324D03*
X0066004Y0090324D03*
X0066004Y0087175D03*
X0066004Y0084025D03*
X0066004Y0080876D03*
D28*
X0084410Y0080429D02*
X0086496Y0080429D01*
X0084410Y0080429D02*
X0084410Y0080645D01*
X0086496Y0080645D01*
X0086496Y0080429D01*
X0086496Y0082398D02*
X0084410Y0082398D01*
X0084410Y0082614D01*
X0086496Y0082614D01*
X0086496Y0082398D01*
X0086496Y0084366D02*
X0084410Y0084366D01*
X0084410Y0084582D01*
X0086496Y0084582D01*
X0086496Y0084366D01*
X0086496Y0086335D02*
X0084410Y0086335D01*
X0084410Y0086551D01*
X0086496Y0086551D01*
X0086496Y0086335D01*
X0088396Y0088451D02*
X0088396Y0090537D01*
X0088612Y0090537D01*
X0088612Y0088451D01*
X0088396Y0088451D01*
X0088396Y0089316D02*
X0088612Y0089316D01*
X0088612Y0090181D02*
X0088396Y0090181D01*
X0090364Y0090537D02*
X0090364Y0088451D01*
X0090364Y0090537D02*
X0090580Y0090537D01*
X0090580Y0088451D01*
X0090364Y0088451D01*
X0090364Y0089316D02*
X0090580Y0089316D01*
X0090580Y0090181D02*
X0090364Y0090181D01*
X0092333Y0090537D02*
X0092333Y0088451D01*
X0092333Y0090537D02*
X0092549Y0090537D01*
X0092549Y0088451D01*
X0092333Y0088451D01*
X0092333Y0089316D02*
X0092549Y0089316D01*
X0092549Y0090181D02*
X0092333Y0090181D01*
X0094301Y0090537D02*
X0094301Y0088451D01*
X0094301Y0090537D02*
X0094517Y0090537D01*
X0094517Y0088451D01*
X0094301Y0088451D01*
X0094301Y0089316D02*
X0094517Y0089316D01*
X0094517Y0090181D02*
X0094301Y0090181D01*
X0096270Y0090537D02*
X0096270Y0088451D01*
X0096270Y0090537D02*
X0096486Y0090537D01*
X0096486Y0088451D01*
X0096270Y0088451D01*
X0096270Y0089316D02*
X0096486Y0089316D01*
X0096486Y0090181D02*
X0096270Y0090181D01*
X0098238Y0090537D02*
X0098238Y0088451D01*
X0098238Y0090537D02*
X0098454Y0090537D01*
X0098454Y0088451D01*
X0098238Y0088451D01*
X0098238Y0089316D02*
X0098454Y0089316D01*
X0098454Y0090181D02*
X0098238Y0090181D01*
X0100207Y0090537D02*
X0100207Y0088451D01*
X0100207Y0090537D02*
X0100423Y0090537D01*
X0100423Y0088451D01*
X0100207Y0088451D01*
X0100207Y0089316D02*
X0100423Y0089316D01*
X0100423Y0090181D02*
X0100207Y0090181D01*
X0102175Y0090537D02*
X0102175Y0088451D01*
X0102175Y0090537D02*
X0102391Y0090537D01*
X0102391Y0088451D01*
X0102175Y0088451D01*
X0102175Y0089316D02*
X0102391Y0089316D01*
X0102391Y0090181D02*
X0102175Y0090181D01*
X0104144Y0090537D02*
X0104144Y0088451D01*
X0104144Y0090537D02*
X0104360Y0090537D01*
X0104360Y0088451D01*
X0104144Y0088451D01*
X0104144Y0089316D02*
X0104360Y0089316D01*
X0104360Y0090181D02*
X0104144Y0090181D01*
X0106112Y0090537D02*
X0106112Y0088451D01*
X0106112Y0090537D02*
X0106328Y0090537D01*
X0106328Y0088451D01*
X0106112Y0088451D01*
X0106112Y0089316D02*
X0106328Y0089316D01*
X0106328Y0090181D02*
X0106112Y0090181D01*
X0108081Y0090537D02*
X0108081Y0088451D01*
X0108081Y0090537D02*
X0108297Y0090537D01*
X0108297Y0088451D01*
X0108081Y0088451D01*
X0108081Y0089316D02*
X0108297Y0089316D01*
X0108297Y0090181D02*
X0108081Y0090181D01*
X0110197Y0086551D02*
X0112283Y0086551D01*
X0112283Y0086335D01*
X0110197Y0086335D01*
X0110197Y0086551D01*
X0110197Y0084582D02*
X0112283Y0084582D01*
X0112283Y0084366D01*
X0110197Y0084366D01*
X0110197Y0084582D01*
X0110197Y0082614D02*
X0112283Y0082614D01*
X0112283Y0082398D01*
X0110197Y0082398D01*
X0110197Y0082614D01*
X0110197Y0080645D02*
X0112283Y0080645D01*
X0112283Y0080429D01*
X0110197Y0080429D01*
X0110197Y0080645D01*
X0110197Y0078677D02*
X0112283Y0078677D01*
X0112283Y0078461D01*
X0110197Y0078461D01*
X0110197Y0078677D01*
X0110197Y0076708D02*
X0112283Y0076708D01*
X0112283Y0076492D01*
X0110197Y0076492D01*
X0110197Y0076708D01*
X0110197Y0074739D02*
X0112283Y0074739D01*
X0112283Y0074523D01*
X0110197Y0074523D01*
X0110197Y0074739D01*
X0110197Y0072771D02*
X0112283Y0072771D01*
X0112283Y0072555D01*
X0110197Y0072555D01*
X0110197Y0072771D01*
X0110197Y0070802D02*
X0112283Y0070802D01*
X0112283Y0070586D01*
X0110197Y0070586D01*
X0110197Y0070802D01*
X0110197Y0068834D02*
X0112283Y0068834D01*
X0112283Y0068618D01*
X0110197Y0068618D01*
X0110197Y0068834D01*
X0110197Y0066865D02*
X0112283Y0066865D01*
X0112283Y0066649D01*
X0110197Y0066649D01*
X0110197Y0066865D01*
X0108297Y0064749D02*
X0108297Y0062663D01*
X0108081Y0062663D01*
X0108081Y0064749D01*
X0108297Y0064749D01*
X0108297Y0063528D02*
X0108081Y0063528D01*
X0108081Y0064393D02*
X0108297Y0064393D01*
X0106328Y0064749D02*
X0106328Y0062663D01*
X0106112Y0062663D01*
X0106112Y0064749D01*
X0106328Y0064749D01*
X0106328Y0063528D02*
X0106112Y0063528D01*
X0106112Y0064393D02*
X0106328Y0064393D01*
X0104360Y0064749D02*
X0104360Y0062663D01*
X0104144Y0062663D01*
X0104144Y0064749D01*
X0104360Y0064749D01*
X0104360Y0063528D02*
X0104144Y0063528D01*
X0104144Y0064393D02*
X0104360Y0064393D01*
X0102391Y0064749D02*
X0102391Y0062663D01*
X0102175Y0062663D01*
X0102175Y0064749D01*
X0102391Y0064749D01*
X0102391Y0063528D02*
X0102175Y0063528D01*
X0102175Y0064393D02*
X0102391Y0064393D01*
X0100423Y0064749D02*
X0100423Y0062663D01*
X0100207Y0062663D01*
X0100207Y0064749D01*
X0100423Y0064749D01*
X0100423Y0063528D02*
X0100207Y0063528D01*
X0100207Y0064393D02*
X0100423Y0064393D01*
X0098454Y0064749D02*
X0098454Y0062663D01*
X0098238Y0062663D01*
X0098238Y0064749D01*
X0098454Y0064749D01*
X0098454Y0063528D02*
X0098238Y0063528D01*
X0098238Y0064393D02*
X0098454Y0064393D01*
X0096486Y0064749D02*
X0096486Y0062663D01*
X0096270Y0062663D01*
X0096270Y0064749D01*
X0096486Y0064749D01*
X0096486Y0063528D02*
X0096270Y0063528D01*
X0096270Y0064393D02*
X0096486Y0064393D01*
X0094517Y0064749D02*
X0094517Y0062663D01*
X0094301Y0062663D01*
X0094301Y0064749D01*
X0094517Y0064749D01*
X0094517Y0063528D02*
X0094301Y0063528D01*
X0094301Y0064393D02*
X0094517Y0064393D01*
X0092549Y0064749D02*
X0092549Y0062663D01*
X0092333Y0062663D01*
X0092333Y0064749D01*
X0092549Y0064749D01*
X0092549Y0063528D02*
X0092333Y0063528D01*
X0092333Y0064393D02*
X0092549Y0064393D01*
X0090580Y0064749D02*
X0090580Y0062663D01*
X0090364Y0062663D01*
X0090364Y0064749D01*
X0090580Y0064749D01*
X0090580Y0063528D02*
X0090364Y0063528D01*
X0090364Y0064393D02*
X0090580Y0064393D01*
X0088612Y0064749D02*
X0088612Y0062663D01*
X0088396Y0062663D01*
X0088396Y0064749D01*
X0088612Y0064749D01*
X0088612Y0063528D02*
X0088396Y0063528D01*
X0088396Y0064393D02*
X0088612Y0064393D01*
X0086496Y0066649D02*
X0084410Y0066649D01*
X0084410Y0066865D01*
X0086496Y0066865D01*
X0086496Y0066649D01*
X0086496Y0068618D02*
X0084410Y0068618D01*
X0084410Y0068834D01*
X0086496Y0068834D01*
X0086496Y0068618D01*
X0086496Y0070586D02*
X0084410Y0070586D01*
X0084410Y0070802D01*
X0086496Y0070802D01*
X0086496Y0070586D01*
X0086496Y0072555D02*
X0084410Y0072555D01*
X0084410Y0072771D01*
X0086496Y0072771D01*
X0086496Y0072555D01*
X0086496Y0074523D02*
X0084410Y0074523D01*
X0084410Y0074739D01*
X0086496Y0074739D01*
X0086496Y0074523D01*
X0086496Y0076492D02*
X0084410Y0076492D01*
X0084410Y0076708D01*
X0086496Y0076708D01*
X0086496Y0076492D01*
X0086496Y0078461D02*
X0084410Y0078461D01*
X0084410Y0078677D01*
X0086496Y0078677D01*
X0086496Y0078461D01*
D29*
X0089796Y0068050D02*
X0106896Y0068050D01*
X0089796Y0068050D02*
X0089796Y0085150D01*
X0106896Y0085150D01*
X0106896Y0068050D01*
X0106896Y0069949D02*
X0089796Y0069949D01*
X0089796Y0071848D02*
X0106896Y0071848D01*
X0106896Y0073747D02*
X0089796Y0073747D01*
X0089796Y0075646D02*
X0106896Y0075646D01*
X0106896Y0077545D02*
X0089796Y0077545D01*
X0089796Y0079444D02*
X0106896Y0079444D01*
X0106896Y0081343D02*
X0089796Y0081343D01*
X0089796Y0083242D02*
X0106896Y0083242D01*
X0106896Y0085141D02*
X0089796Y0085141D01*
D30*
X0118228Y0102860D03*
X0118228Y0106600D03*
X0118228Y0110340D03*
X0128465Y0110340D03*
X0128465Y0102860D03*
D31*
X0109874Y0046242D03*
X0109874Y0038958D03*
X0100819Y0038958D03*
X0100819Y0046242D03*
D32*
X0048346Y0073163D03*
X0048346Y0081037D03*
X0053346Y0086663D03*
X0053346Y0094537D03*
D33*
X0139016Y0056600D03*
X0147283Y0052860D03*
X0147283Y0060340D03*
X0147283Y0045340D03*
X0139016Y0041600D03*
X0147283Y0037860D03*
D34*
X0147283Y0031163D01*
X0148846Y0029600D01*
X0153096Y0029600D01*
X0153346Y0029850D01*
X0153596Y0029600D01*
X0156346Y0029600D01*
X0157846Y0031100D01*
X0157846Y0036600D01*
X0161596Y0036600D01*
X0157846Y0036600D02*
X0155846Y0038600D01*
X0155846Y0044100D01*
X0157362Y0045616D01*
X0159803Y0045616D01*
X0159803Y0047584D02*
X0149528Y0047584D01*
X0147283Y0045340D01*
X0151606Y0045340D01*
X0153346Y0043600D01*
X0153346Y0033350D01*
X0147283Y0037860D02*
X0143346Y0041797D01*
X0143346Y0051600D01*
X0144606Y0052860D01*
X0147283Y0052860D01*
X0143346Y0056797D01*
X0143346Y0066600D01*
X0145096Y0068350D01*
X0153346Y0068350D01*
X0153346Y0064850D02*
X0153346Y0060600D01*
X0153606Y0060340D01*
X0155846Y0058100D01*
X0155846Y0053509D01*
X0159803Y0049553D01*
X0153606Y0060340D02*
X0147283Y0060340D01*
X0139016Y0056600D02*
X0128346Y0056600D01*
X0128346Y0064850D01*
X0128346Y0056600D02*
X0108346Y0056600D01*
X0102283Y0061663D01*
X0102283Y0063706D01*
X0100315Y0063706D02*
X0100315Y0061131D01*
X0108346Y0053100D01*
X0133346Y0053100D01*
X0133346Y0044600D01*
X0136346Y0041600D01*
X0139016Y0041600D01*
X0117346Y0043350D02*
X0114455Y0046242D01*
X0109874Y0046242D01*
X0098346Y0057769D01*
X0098346Y0063706D01*
X0096378Y0063706D02*
X0096378Y0041819D01*
X0098346Y0039850D01*
X0099927Y0039850D01*
X0100819Y0038958D01*
X0098346Y0039850D02*
X0093346Y0039850D01*
X0086346Y0041600D02*
X0078346Y0033600D01*
X0078346Y0024907D01*
X0075039Y0021600D01*
X0075039Y0017543D01*
X0070096Y0012600D01*
X0066596Y0012600D02*
X0061654Y0017543D01*
X0061654Y0021600D01*
X0050740Y0021600D01*
X0042205Y0013065D01*
X0061654Y0021600D02*
X0065846Y0025793D01*
X0065846Y0028600D01*
X0063346Y0031100D01*
X0063346Y0038600D01*
X0058346Y0043600D01*
X0068346Y0043600D02*
X0068346Y0061600D01*
X0077441Y0070694D01*
X0085453Y0070694D01*
X0085453Y0068726D02*
X0080472Y0068726D01*
X0073346Y0061600D01*
X0073346Y0038600D01*
X0068346Y0033600D01*
X0073346Y0035600D02*
X0073346Y0031100D01*
X0070846Y0028600D01*
X0065846Y0028600D01*
X0073346Y0035600D02*
X0076346Y0038600D01*
X0079846Y0038600D01*
X0083346Y0042100D01*
X0083346Y0051600D01*
X0090453Y0058706D01*
X0090453Y0063706D01*
X0090472Y0063706D01*
X0092441Y0063706D02*
X0092441Y0057694D01*
X0086346Y0051600D01*
X0086346Y0041600D01*
X0078346Y0043600D02*
X0078346Y0061600D01*
X0083504Y0066757D01*
X0085453Y0066757D01*
X0085453Y0074631D02*
X0086815Y0074631D01*
X0085453Y0080537D02*
X0066004Y0080537D01*
X0066004Y0080876D01*
X0066004Y0084025D02*
X0066079Y0084100D01*
X0068346Y0084100D01*
X0069941Y0082506D01*
X0085453Y0082506D01*
X0061028Y0081037D02*
X0060689Y0080876D01*
X0061028Y0081037D02*
X0048346Y0081037D01*
X0045283Y0084100D01*
X0032075Y0084100D01*
X0032075Y0086659D02*
X0038980Y0086659D01*
X0038983Y0086663D01*
X0053346Y0086663D01*
X0055984Y0084025D01*
X0060689Y0084025D01*
D35*
X0098346Y0106600D03*
X0098346Y0123600D03*
X0123346Y0100100D03*
X0118346Y0073100D03*
X0092346Y0052600D03*
X0103346Y0031600D03*
X0173346Y0036600D03*
X0028346Y0126600D03*
D36*
X0021346Y0084100D03*
X0092346Y0082600D03*
X0097846Y0082600D03*
X0103846Y0082600D03*
X0103846Y0077100D03*
X0098346Y0076600D03*
X0092346Y0076600D03*
X0092346Y0071100D03*
X0098346Y0071100D03*
X0103846Y0071100D03*
M02*
