%
M48
M72
T01C0.02362
T02C0.03346
T03C0.03740
%
T01
X92346Y52600
X92346Y71100
X98346Y71100
X103846Y71100
X103846Y77100
X98346Y76600
X92346Y76600
X92346Y82600
X97846Y82600
X103846Y82600
X118346Y73100
X123346Y100100
X98346Y106600
X98346Y123600
X28346Y126600
X21346Y84100
X103346Y31600
X173346Y36600
T02
X30008Y76620
X30008Y91580
T03
X58346Y33600
X68346Y33600
X78346Y33600
X78346Y43600
X68346Y43600
X58346Y43600
M30
