G75*
%MOIN*%
%OFA0B0*%
%FSLAX25Y25*%
%IPPOS*%
%LPD*%
%AMOC8*
5,1,8,0,0,1.08239X$1,22.5*
%
%ADD10OC8,0.06140*%
%ADD11C,0.01200*%
%ADD12OC8,0.04362*%
%ADD13C,0.04362*%
D10*
X0058346Y0033600D03*
X0068346Y0033600D03*
X0078346Y0033600D03*
X0078346Y0043600D03*
X0068346Y0043600D03*
X0058346Y0043600D03*
D11*
X0015346Y0003600D02*
X0015346Y0131600D01*
X0181346Y0131600D01*
X0181346Y0003600D01*
X0015346Y0003600D01*
X0015346Y0003997D02*
X0181346Y0003997D01*
X0181346Y0005196D02*
X0015346Y0005196D01*
X0015346Y0006394D02*
X0181346Y0006394D01*
X0181346Y0007593D02*
X0015346Y0007593D01*
X0015346Y0008791D02*
X0181346Y0008791D01*
X0181346Y0009990D02*
X0015346Y0009990D01*
X0015346Y0011188D02*
X0181346Y0011188D01*
X0181346Y0012387D02*
X0015346Y0012387D01*
X0015346Y0013585D02*
X0181346Y0013585D01*
X0181346Y0014784D02*
X0015346Y0014784D01*
X0015346Y0015982D02*
X0181346Y0015982D01*
X0181346Y0017181D02*
X0015346Y0017181D01*
X0015346Y0018379D02*
X0181346Y0018379D01*
X0181346Y0019578D02*
X0015346Y0019578D01*
X0015346Y0020776D02*
X0181346Y0020776D01*
X0181346Y0021975D02*
X0015346Y0021975D01*
X0015346Y0023173D02*
X0181346Y0023173D01*
X0181346Y0024372D02*
X0015346Y0024372D01*
X0015346Y0025570D02*
X0181346Y0025570D01*
X0181346Y0026769D02*
X0015346Y0026769D01*
X0015346Y0027967D02*
X0181346Y0027967D01*
X0181346Y0029166D02*
X0080234Y0029166D01*
X0080198Y0029130D02*
X0082817Y0031748D01*
X0082817Y0035452D01*
X0080198Y0038070D01*
X0076495Y0038070D01*
X0073876Y0035452D01*
X0073876Y0031748D01*
X0076495Y0029130D01*
X0080198Y0029130D01*
X0081432Y0030364D02*
X0181346Y0030364D01*
X0181346Y0031563D02*
X0082631Y0031563D01*
X0082817Y0032761D02*
X0181346Y0032761D01*
X0181346Y0033960D02*
X0082817Y0033960D01*
X0082817Y0035158D02*
X0181346Y0035158D01*
X0181346Y0036357D02*
X0081911Y0036357D01*
X0080713Y0037555D02*
X0181346Y0037555D01*
X0181346Y0038754D02*
X0015346Y0038754D01*
X0015346Y0039952D02*
X0055672Y0039952D01*
X0056495Y0039130D02*
X0060198Y0039130D01*
X0062817Y0041748D01*
X0062817Y0045452D01*
X0060198Y0048070D01*
X0056495Y0048070D01*
X0053876Y0045452D01*
X0053876Y0041748D01*
X0056495Y0039130D01*
X0056412Y0038270D02*
X0053676Y0035534D01*
X0053676Y0033935D01*
X0058011Y0033935D01*
X0058011Y0033265D01*
X0053676Y0033265D01*
X0053676Y0031666D01*
X0056412Y0028930D01*
X0058011Y0028930D01*
X0058011Y0033265D01*
X0058681Y0033265D01*
X0058681Y0028930D01*
X0060281Y0028930D01*
X0063017Y0031666D01*
X0063017Y0033265D01*
X0058682Y0033265D01*
X0058682Y0033935D01*
X0063017Y0033935D01*
X0063017Y0035534D01*
X0060281Y0038270D01*
X0058681Y0038270D01*
X0058681Y0033935D01*
X0058011Y0033935D01*
X0058011Y0038270D01*
X0056412Y0038270D01*
X0055697Y0037555D02*
X0015346Y0037555D01*
X0015346Y0036357D02*
X0054499Y0036357D01*
X0053676Y0035158D02*
X0015346Y0035158D01*
X0015346Y0033960D02*
X0053676Y0033960D01*
X0053676Y0032761D02*
X0015346Y0032761D01*
X0015346Y0031563D02*
X0053779Y0031563D01*
X0054978Y0030364D02*
X0015346Y0030364D01*
X0015346Y0029166D02*
X0056176Y0029166D01*
X0058011Y0029166D02*
X0058681Y0029166D01*
X0058681Y0030364D02*
X0058011Y0030364D01*
X0058011Y0031563D02*
X0058681Y0031563D01*
X0058681Y0032761D02*
X0058011Y0032761D01*
X0058011Y0033960D02*
X0058681Y0033960D01*
X0058681Y0035158D02*
X0058011Y0035158D01*
X0058011Y0036357D02*
X0058681Y0036357D01*
X0058681Y0037555D02*
X0058011Y0037555D01*
X0060996Y0037555D02*
X0065980Y0037555D01*
X0066495Y0038070D02*
X0063876Y0035452D01*
X0063876Y0031748D01*
X0066495Y0029130D01*
X0070198Y0029130D01*
X0072817Y0031748D01*
X0072817Y0035452D01*
X0070198Y0038070D01*
X0066495Y0038070D01*
X0066495Y0039130D02*
X0070198Y0039130D01*
X0072817Y0041748D01*
X0072817Y0045452D01*
X0070198Y0048070D01*
X0066495Y0048070D01*
X0063876Y0045452D01*
X0063876Y0041748D01*
X0066495Y0039130D01*
X0065672Y0039952D02*
X0061020Y0039952D01*
X0062219Y0041151D02*
X0064474Y0041151D01*
X0063876Y0042349D02*
X0062817Y0042349D01*
X0062817Y0043548D02*
X0063876Y0043548D01*
X0063876Y0044746D02*
X0062817Y0044746D01*
X0062323Y0045945D02*
X0064370Y0045945D01*
X0065568Y0047143D02*
X0061125Y0047143D01*
X0055568Y0047143D02*
X0015346Y0047143D01*
X0015346Y0045945D02*
X0054370Y0045945D01*
X0053876Y0044746D02*
X0015346Y0044746D01*
X0015346Y0043548D02*
X0053876Y0043548D01*
X0053876Y0042349D02*
X0015346Y0042349D01*
X0015346Y0041151D02*
X0054474Y0041151D01*
X0062194Y0036357D02*
X0064782Y0036357D01*
X0063876Y0035158D02*
X0063017Y0035158D01*
X0063017Y0033960D02*
X0063876Y0033960D01*
X0063876Y0032761D02*
X0063017Y0032761D01*
X0062914Y0031563D02*
X0064062Y0031563D01*
X0065261Y0030364D02*
X0061715Y0030364D01*
X0060517Y0029166D02*
X0066459Y0029166D01*
X0070234Y0029166D02*
X0076459Y0029166D01*
X0075261Y0030364D02*
X0071432Y0030364D01*
X0072631Y0031563D02*
X0074062Y0031563D01*
X0073876Y0032761D02*
X0072817Y0032761D01*
X0072817Y0033960D02*
X0073876Y0033960D01*
X0073876Y0035158D02*
X0072817Y0035158D01*
X0071911Y0036357D02*
X0074782Y0036357D01*
X0075980Y0037555D02*
X0070713Y0037555D01*
X0071020Y0039952D02*
X0075672Y0039952D01*
X0076495Y0039130D02*
X0080198Y0039130D01*
X0082817Y0041748D01*
X0082817Y0045452D01*
X0080198Y0048070D01*
X0076495Y0048070D01*
X0073876Y0045452D01*
X0073876Y0041748D01*
X0076495Y0039130D01*
X0074474Y0041151D02*
X0072219Y0041151D01*
X0072817Y0042349D02*
X0073876Y0042349D01*
X0073876Y0043548D02*
X0072817Y0043548D01*
X0072817Y0044746D02*
X0073876Y0044746D01*
X0074370Y0045945D02*
X0072323Y0045945D01*
X0071125Y0047143D02*
X0075568Y0047143D01*
X0081125Y0047143D02*
X0181346Y0047143D01*
X0181346Y0045945D02*
X0082323Y0045945D01*
X0082817Y0044746D02*
X0181346Y0044746D01*
X0181346Y0043548D02*
X0082817Y0043548D01*
X0082817Y0042349D02*
X0181346Y0042349D01*
X0181346Y0041151D02*
X0082219Y0041151D01*
X0081020Y0039952D02*
X0181346Y0039952D01*
X0181346Y0048342D02*
X0015346Y0048342D01*
X0015346Y0049540D02*
X0090342Y0049540D01*
X0090863Y0049019D02*
X0093830Y0049019D01*
X0095928Y0051117D01*
X0095928Y0053353D01*
X0113675Y0071100D01*
X0115282Y0071100D01*
X0116863Y0069519D01*
X0119830Y0069519D01*
X0121928Y0071617D01*
X0121928Y0074583D01*
X0119830Y0076681D01*
X0116863Y0076681D01*
X0115282Y0075100D01*
X0112018Y0075100D01*
X0093099Y0056181D01*
X0090863Y0056181D01*
X0088765Y0054083D01*
X0088765Y0051117D01*
X0090863Y0049019D01*
X0089143Y0050739D02*
X0015346Y0050739D01*
X0015346Y0051937D02*
X0088765Y0051937D01*
X0088765Y0053136D02*
X0015346Y0053136D01*
X0015346Y0054334D02*
X0089017Y0054334D01*
X0090215Y0055533D02*
X0015346Y0055533D01*
X0015346Y0056732D02*
X0093650Y0056732D01*
X0094848Y0057930D02*
X0015346Y0057930D01*
X0015346Y0059129D02*
X0096047Y0059129D01*
X0097245Y0060327D02*
X0015346Y0060327D01*
X0015346Y0061526D02*
X0098444Y0061526D01*
X0099642Y0062724D02*
X0015346Y0062724D01*
X0015346Y0063923D02*
X0100841Y0063923D01*
X0102039Y0065121D02*
X0015346Y0065121D01*
X0015346Y0066320D02*
X0103238Y0066320D01*
X0104436Y0067518D02*
X0015346Y0067518D01*
X0015346Y0068717D02*
X0105635Y0068717D01*
X0106833Y0069915D02*
X0015346Y0069915D01*
X0015346Y0071114D02*
X0108032Y0071114D01*
X0109230Y0072312D02*
X0015346Y0072312D01*
X0015346Y0073511D02*
X0110429Y0073511D01*
X0111627Y0074709D02*
X0032444Y0074709D01*
X0032613Y0074879D02*
X0033081Y0076008D01*
X0033081Y0077231D01*
X0032613Y0078361D01*
X0031749Y0079225D01*
X0030619Y0079693D01*
X0029397Y0079693D01*
X0028267Y0079225D01*
X0027403Y0078361D01*
X0026935Y0077231D01*
X0026935Y0076008D01*
X0027403Y0074879D01*
X0028267Y0074014D01*
X0029397Y0073546D01*
X0030619Y0073546D01*
X0031749Y0074014D01*
X0032613Y0074879D01*
X0033039Y0075908D02*
X0116090Y0075908D01*
X0118346Y0073100D02*
X0112846Y0073100D01*
X0092346Y0052600D01*
X0092346Y0053100D01*
X0095928Y0053136D02*
X0181346Y0053136D01*
X0181346Y0054334D02*
X0096909Y0054334D01*
X0098108Y0055533D02*
X0181346Y0055533D01*
X0181346Y0056732D02*
X0099306Y0056732D01*
X0100505Y0057930D02*
X0181346Y0057930D01*
X0181346Y0059129D02*
X0101703Y0059129D01*
X0102902Y0060327D02*
X0181346Y0060327D01*
X0181346Y0061526D02*
X0104100Y0061526D01*
X0105299Y0062724D02*
X0181346Y0062724D01*
X0181346Y0063923D02*
X0106497Y0063923D01*
X0107696Y0065121D02*
X0181346Y0065121D01*
X0181346Y0066320D02*
X0108894Y0066320D01*
X0110093Y0067518D02*
X0181346Y0067518D01*
X0181346Y0068717D02*
X0111292Y0068717D01*
X0112490Y0069915D02*
X0116467Y0069915D01*
X0120226Y0069915D02*
X0181346Y0069915D01*
X0181346Y0071114D02*
X0121425Y0071114D01*
X0121928Y0072312D02*
X0181346Y0072312D01*
X0181346Y0073511D02*
X0121928Y0073511D01*
X0121802Y0074709D02*
X0181346Y0074709D01*
X0181346Y0075908D02*
X0120603Y0075908D01*
X0098346Y0076600D02*
X0092346Y0076600D01*
X0095928Y0051937D02*
X0181346Y0051937D01*
X0181346Y0050739D02*
X0095550Y0050739D01*
X0094351Y0049540D02*
X0181346Y0049540D01*
X0181346Y0077106D02*
X0033081Y0077106D01*
X0032636Y0078305D02*
X0181346Y0078305D01*
X0181346Y0079503D02*
X0031077Y0079503D01*
X0028939Y0079503D02*
X0015346Y0079503D01*
X0015346Y0078305D02*
X0027379Y0078305D01*
X0026935Y0077106D02*
X0015346Y0077106D01*
X0015346Y0075908D02*
X0026976Y0075908D01*
X0027572Y0074709D02*
X0015346Y0074709D01*
X0015346Y0080702D02*
X0181346Y0080702D01*
X0181346Y0081900D02*
X0015346Y0081900D01*
X0015346Y0083099D02*
X0181346Y0083099D01*
X0181346Y0084297D02*
X0015346Y0084297D01*
X0015346Y0085496D02*
X0181346Y0085496D01*
X0181346Y0086694D02*
X0015346Y0086694D01*
X0015346Y0087893D02*
X0181346Y0087893D01*
X0181346Y0089091D02*
X0031865Y0089091D01*
X0031749Y0088975D02*
X0032613Y0089839D01*
X0033081Y0090969D01*
X0033081Y0092192D01*
X0032613Y0093321D01*
X0031749Y0094186D01*
X0030619Y0094654D01*
X0029397Y0094654D01*
X0028267Y0094186D01*
X0027403Y0093321D01*
X0026935Y0092192D01*
X0026935Y0090969D01*
X0027403Y0089839D01*
X0028267Y0088975D01*
X0029397Y0088507D01*
X0030619Y0088507D01*
X0031749Y0088975D01*
X0032800Y0090290D02*
X0181346Y0090290D01*
X0181346Y0091488D02*
X0033081Y0091488D01*
X0032876Y0092687D02*
X0181346Y0092687D01*
X0181346Y0093885D02*
X0032049Y0093885D01*
X0027967Y0093885D02*
X0015346Y0093885D01*
X0015346Y0092687D02*
X0027140Y0092687D01*
X0026935Y0091488D02*
X0015346Y0091488D01*
X0015346Y0090290D02*
X0027216Y0090290D01*
X0028151Y0089091D02*
X0015346Y0089091D01*
X0015346Y0095084D02*
X0181346Y0095084D01*
X0181346Y0096282D02*
X0015346Y0096282D01*
X0015346Y0097481D02*
X0181346Y0097481D01*
X0181346Y0098679D02*
X0015346Y0098679D01*
X0015346Y0099878D02*
X0181346Y0099878D01*
X0181346Y0101076D02*
X0015346Y0101076D01*
X0015346Y0102275D02*
X0181346Y0102275D01*
X0181346Y0103473D02*
X0015346Y0103473D01*
X0015346Y0104672D02*
X0181346Y0104672D01*
X0181346Y0105870D02*
X0015346Y0105870D01*
X0015346Y0107069D02*
X0181346Y0107069D01*
X0181346Y0108268D02*
X0015346Y0108268D01*
X0015346Y0109466D02*
X0181346Y0109466D01*
X0181346Y0110665D02*
X0015346Y0110665D01*
X0015346Y0111863D02*
X0181346Y0111863D01*
X0181346Y0113062D02*
X0015346Y0113062D01*
X0015346Y0114260D02*
X0181346Y0114260D01*
X0181346Y0115459D02*
X0015346Y0115459D01*
X0015346Y0116657D02*
X0181346Y0116657D01*
X0181346Y0117856D02*
X0015346Y0117856D01*
X0015346Y0119054D02*
X0181346Y0119054D01*
X0181346Y0120253D02*
X0015346Y0120253D01*
X0015346Y0121451D02*
X0181346Y0121451D01*
X0181346Y0122650D02*
X0015346Y0122650D01*
X0015346Y0123848D02*
X0181346Y0123848D01*
X0181346Y0125047D02*
X0015346Y0125047D01*
X0015346Y0126245D02*
X0181346Y0126245D01*
X0181346Y0127444D02*
X0015346Y0127444D01*
X0015346Y0128642D02*
X0181346Y0128642D01*
X0181346Y0129841D02*
X0015346Y0129841D01*
X0015346Y0131039D02*
X0181346Y0131039D01*
D12*
X0123346Y0100100D03*
X0098346Y0106600D03*
X0098346Y0123600D03*
X0118346Y0073100D03*
X0092346Y0052600D03*
X0103346Y0031600D03*
X0173346Y0036600D03*
X0028346Y0126600D03*
D13*
X0021346Y0084100D03*
X0092346Y0082600D03*
X0097846Y0082600D03*
X0103846Y0082600D03*
X0103846Y0077100D03*
X0098346Y0076600D03*
X0092346Y0076600D03*
X0092346Y0071100D03*
X0098346Y0071100D03*
X0103846Y0071100D03*
M02*
