G75*
%MOIN*%
%OFA0B0*%
%FSLAX25Y25*%
%IPPOS*%
%LPD*%
%AMOC8*
5,1,8,0,0,1.08239X$1,22.5*
%
%ADD10C,0.00800*%
%ADD11R,0.02400X0.06200*%
%ADD12R,0.00768X0.00768*%
%ADD13C,0.01200*%
%ADD14C,0.00600*%
%ADD15R,0.00787X0.00787*%
%ADD16C,0.00500*%
%ADD17C,0.00276*%
%ADD18R,0.02756X0.01181*%
%ADD19C,0.00400*%
D10*
X0066378Y0019631D02*
X0066378Y0023569D01*
X0070315Y0021600D01*
X0066378Y0019631D01*
X0140591Y0036088D02*
X0143740Y0036088D01*
X0140591Y0036088D02*
X0140591Y0038450D01*
X0140591Y0044750D02*
X0140591Y0047112D01*
X0143740Y0047112D01*
X0143740Y0051088D02*
X0140591Y0051088D01*
X0140591Y0053450D01*
X0140591Y0059750D02*
X0140591Y0062112D01*
X0143740Y0062112D01*
D11*
X0070546Y0021600D03*
D12*
X0158730Y0051216D03*
D13*
X0033157Y0068352D02*
X0033157Y0072289D01*
X0033157Y0068352D02*
X0029220Y0068352D01*
X0017409Y0068352D02*
X0013472Y0068352D01*
X0033157Y0095911D02*
X0033157Y0099848D01*
X0033086Y0099820D02*
X0029220Y0099820D01*
X0029220Y0099848D01*
X0017409Y0099848D02*
X0013472Y0099848D01*
D14*
X0055846Y0048600D02*
X0060846Y0048600D01*
X0063346Y0046100D01*
X0063346Y0031100D01*
X0060846Y0028600D01*
X0055846Y0028600D01*
X0053346Y0031100D01*
X0053346Y0046100D01*
X0055846Y0048600D01*
X0063346Y0046100D02*
X0065846Y0048600D01*
X0070846Y0048600D01*
X0073346Y0046100D01*
X0073346Y0031100D01*
X0070846Y0028600D01*
X0065846Y0028600D01*
X0063346Y0031100D01*
X0073346Y0031100D02*
X0075846Y0028600D01*
X0080846Y0028600D01*
X0083346Y0031100D01*
X0083346Y0046100D01*
X0080846Y0048600D01*
X0075846Y0048600D01*
X0073346Y0046100D01*
X0120157Y0101002D02*
X0120157Y0101372D01*
X0120157Y0101002D02*
X0126535Y0101002D01*
X0126535Y0101372D01*
X0126535Y0104545D02*
X0126535Y0108655D01*
X0126535Y0111828D02*
X0126535Y0112198D01*
X0120157Y0112198D01*
X0120157Y0111828D01*
X0120157Y0108655D02*
X0120157Y0108285D01*
X0120157Y0104915D02*
X0120157Y0104545D01*
D15*
X0135240Y0084100D03*
X0086740Y0123100D03*
D16*
X0021972Y0025663D02*
X0021972Y0017880D01*
X0044720Y0017880D01*
X0044720Y0025663D01*
X0045508Y0025663D01*
X0045508Y0033537D01*
X0044720Y0033537D01*
X0044720Y0041320D01*
X0035315Y0041320D01*
X0035315Y0042305D01*
X0031378Y0042305D01*
X0031378Y0041320D01*
X0021972Y0041320D01*
X0021972Y0033537D01*
X0021185Y0033537D01*
X0021185Y0025663D01*
X0021972Y0025663D01*
X0022760Y0025663D01*
X0022760Y0033537D01*
X0021972Y0033537D01*
X0028622Y0029600D02*
X0028624Y0029737D01*
X0028630Y0029875D01*
X0028640Y0030012D01*
X0028654Y0030148D01*
X0028672Y0030285D01*
X0028694Y0030420D01*
X0028720Y0030555D01*
X0028749Y0030689D01*
X0028783Y0030823D01*
X0028820Y0030955D01*
X0028862Y0031086D01*
X0028907Y0031216D01*
X0028956Y0031344D01*
X0029008Y0031471D01*
X0029065Y0031596D01*
X0029124Y0031720D01*
X0029188Y0031842D01*
X0029255Y0031962D01*
X0029325Y0032080D01*
X0029399Y0032196D01*
X0029476Y0032310D01*
X0029557Y0032421D01*
X0029640Y0032530D01*
X0029727Y0032637D01*
X0029817Y0032740D01*
X0029910Y0032842D01*
X0030006Y0032940D01*
X0030104Y0033036D01*
X0030206Y0033129D01*
X0030309Y0033219D01*
X0030416Y0033306D01*
X0030525Y0033389D01*
X0030636Y0033470D01*
X0030750Y0033547D01*
X0030866Y0033621D01*
X0030984Y0033691D01*
X0031104Y0033758D01*
X0031226Y0033822D01*
X0031350Y0033881D01*
X0031475Y0033938D01*
X0031602Y0033990D01*
X0031730Y0034039D01*
X0031860Y0034084D01*
X0031991Y0034126D01*
X0032123Y0034163D01*
X0032257Y0034197D01*
X0032391Y0034226D01*
X0032526Y0034252D01*
X0032661Y0034274D01*
X0032798Y0034292D01*
X0032934Y0034306D01*
X0033071Y0034316D01*
X0033209Y0034322D01*
X0033346Y0034324D01*
X0033483Y0034322D01*
X0033621Y0034316D01*
X0033758Y0034306D01*
X0033894Y0034292D01*
X0034031Y0034274D01*
X0034166Y0034252D01*
X0034301Y0034226D01*
X0034435Y0034197D01*
X0034569Y0034163D01*
X0034701Y0034126D01*
X0034832Y0034084D01*
X0034962Y0034039D01*
X0035090Y0033990D01*
X0035217Y0033938D01*
X0035342Y0033881D01*
X0035466Y0033822D01*
X0035588Y0033758D01*
X0035708Y0033691D01*
X0035826Y0033621D01*
X0035942Y0033547D01*
X0036056Y0033470D01*
X0036167Y0033389D01*
X0036276Y0033306D01*
X0036383Y0033219D01*
X0036486Y0033129D01*
X0036588Y0033036D01*
X0036686Y0032940D01*
X0036782Y0032842D01*
X0036875Y0032740D01*
X0036965Y0032637D01*
X0037052Y0032530D01*
X0037135Y0032421D01*
X0037216Y0032310D01*
X0037293Y0032196D01*
X0037367Y0032080D01*
X0037437Y0031962D01*
X0037504Y0031842D01*
X0037568Y0031720D01*
X0037627Y0031596D01*
X0037684Y0031471D01*
X0037736Y0031344D01*
X0037785Y0031216D01*
X0037830Y0031086D01*
X0037872Y0030955D01*
X0037909Y0030823D01*
X0037943Y0030689D01*
X0037972Y0030555D01*
X0037998Y0030420D01*
X0038020Y0030285D01*
X0038038Y0030148D01*
X0038052Y0030012D01*
X0038062Y0029875D01*
X0038068Y0029737D01*
X0038070Y0029600D01*
X0038068Y0029463D01*
X0038062Y0029325D01*
X0038052Y0029188D01*
X0038038Y0029052D01*
X0038020Y0028915D01*
X0037998Y0028780D01*
X0037972Y0028645D01*
X0037943Y0028511D01*
X0037909Y0028377D01*
X0037872Y0028245D01*
X0037830Y0028114D01*
X0037785Y0027984D01*
X0037736Y0027856D01*
X0037684Y0027729D01*
X0037627Y0027604D01*
X0037568Y0027480D01*
X0037504Y0027358D01*
X0037437Y0027238D01*
X0037367Y0027120D01*
X0037293Y0027004D01*
X0037216Y0026890D01*
X0037135Y0026779D01*
X0037052Y0026670D01*
X0036965Y0026563D01*
X0036875Y0026460D01*
X0036782Y0026358D01*
X0036686Y0026260D01*
X0036588Y0026164D01*
X0036486Y0026071D01*
X0036383Y0025981D01*
X0036276Y0025894D01*
X0036167Y0025811D01*
X0036056Y0025730D01*
X0035942Y0025653D01*
X0035826Y0025579D01*
X0035708Y0025509D01*
X0035588Y0025442D01*
X0035466Y0025378D01*
X0035342Y0025319D01*
X0035217Y0025262D01*
X0035090Y0025210D01*
X0034962Y0025161D01*
X0034832Y0025116D01*
X0034701Y0025074D01*
X0034569Y0025037D01*
X0034435Y0025003D01*
X0034301Y0024974D01*
X0034166Y0024948D01*
X0034031Y0024926D01*
X0033894Y0024908D01*
X0033758Y0024894D01*
X0033621Y0024884D01*
X0033483Y0024878D01*
X0033346Y0024876D01*
X0033209Y0024878D01*
X0033071Y0024884D01*
X0032934Y0024894D01*
X0032798Y0024908D01*
X0032661Y0024926D01*
X0032526Y0024948D01*
X0032391Y0024974D01*
X0032257Y0025003D01*
X0032123Y0025037D01*
X0031991Y0025074D01*
X0031860Y0025116D01*
X0031730Y0025161D01*
X0031602Y0025210D01*
X0031475Y0025262D01*
X0031350Y0025319D01*
X0031226Y0025378D01*
X0031104Y0025442D01*
X0030984Y0025509D01*
X0030866Y0025579D01*
X0030750Y0025653D01*
X0030636Y0025730D01*
X0030525Y0025811D01*
X0030416Y0025894D01*
X0030309Y0025981D01*
X0030206Y0026071D01*
X0030104Y0026164D01*
X0030006Y0026260D01*
X0029910Y0026358D01*
X0029817Y0026460D01*
X0029727Y0026563D01*
X0029640Y0026670D01*
X0029557Y0026779D01*
X0029476Y0026890D01*
X0029399Y0027004D01*
X0029325Y0027120D01*
X0029255Y0027238D01*
X0029188Y0027358D01*
X0029124Y0027480D01*
X0029065Y0027604D01*
X0029008Y0027729D01*
X0028956Y0027856D01*
X0028907Y0027984D01*
X0028862Y0028114D01*
X0028820Y0028245D01*
X0028783Y0028377D01*
X0028749Y0028511D01*
X0028720Y0028645D01*
X0028694Y0028780D01*
X0028672Y0028915D01*
X0028654Y0029052D01*
X0028640Y0029188D01*
X0028630Y0029325D01*
X0028624Y0029463D01*
X0028622Y0029600D01*
X0027440Y0029600D02*
X0027442Y0029753D01*
X0027448Y0029907D01*
X0027458Y0030060D01*
X0027472Y0030212D01*
X0027490Y0030365D01*
X0027512Y0030516D01*
X0027537Y0030667D01*
X0027567Y0030818D01*
X0027601Y0030968D01*
X0027638Y0031116D01*
X0027679Y0031264D01*
X0027724Y0031410D01*
X0027773Y0031556D01*
X0027826Y0031700D01*
X0027882Y0031842D01*
X0027942Y0031983D01*
X0028006Y0032123D01*
X0028073Y0032261D01*
X0028144Y0032397D01*
X0028219Y0032531D01*
X0028296Y0032663D01*
X0028378Y0032793D01*
X0028462Y0032921D01*
X0028550Y0033047D01*
X0028641Y0033170D01*
X0028735Y0033291D01*
X0028833Y0033409D01*
X0028933Y0033525D01*
X0029037Y0033638D01*
X0029143Y0033749D01*
X0029252Y0033857D01*
X0029364Y0033962D01*
X0029478Y0034063D01*
X0029596Y0034162D01*
X0029715Y0034258D01*
X0029837Y0034351D01*
X0029962Y0034440D01*
X0030089Y0034527D01*
X0030218Y0034609D01*
X0030349Y0034689D01*
X0030482Y0034765D01*
X0030617Y0034838D01*
X0030754Y0034907D01*
X0030893Y0034972D01*
X0031033Y0035034D01*
X0031175Y0035092D01*
X0031318Y0035147D01*
X0031463Y0035198D01*
X0031609Y0035245D01*
X0031756Y0035288D01*
X0031904Y0035327D01*
X0032053Y0035363D01*
X0032203Y0035394D01*
X0032354Y0035422D01*
X0032505Y0035446D01*
X0032658Y0035466D01*
X0032810Y0035482D01*
X0032963Y0035494D01*
X0033116Y0035502D01*
X0033269Y0035506D01*
X0033423Y0035506D01*
X0033576Y0035502D01*
X0033729Y0035494D01*
X0033882Y0035482D01*
X0034034Y0035466D01*
X0034187Y0035446D01*
X0034338Y0035422D01*
X0034489Y0035394D01*
X0034639Y0035363D01*
X0034788Y0035327D01*
X0034936Y0035288D01*
X0035083Y0035245D01*
X0035229Y0035198D01*
X0035374Y0035147D01*
X0035517Y0035092D01*
X0035659Y0035034D01*
X0035799Y0034972D01*
X0035938Y0034907D01*
X0036075Y0034838D01*
X0036210Y0034765D01*
X0036343Y0034689D01*
X0036474Y0034609D01*
X0036603Y0034527D01*
X0036730Y0034440D01*
X0036855Y0034351D01*
X0036977Y0034258D01*
X0037096Y0034162D01*
X0037214Y0034063D01*
X0037328Y0033962D01*
X0037440Y0033857D01*
X0037549Y0033749D01*
X0037655Y0033638D01*
X0037759Y0033525D01*
X0037859Y0033409D01*
X0037957Y0033291D01*
X0038051Y0033170D01*
X0038142Y0033047D01*
X0038230Y0032921D01*
X0038314Y0032793D01*
X0038396Y0032663D01*
X0038473Y0032531D01*
X0038548Y0032397D01*
X0038619Y0032261D01*
X0038686Y0032123D01*
X0038750Y0031983D01*
X0038810Y0031842D01*
X0038866Y0031700D01*
X0038919Y0031556D01*
X0038968Y0031410D01*
X0039013Y0031264D01*
X0039054Y0031116D01*
X0039091Y0030968D01*
X0039125Y0030818D01*
X0039155Y0030667D01*
X0039180Y0030516D01*
X0039202Y0030365D01*
X0039220Y0030212D01*
X0039234Y0030060D01*
X0039244Y0029907D01*
X0039250Y0029753D01*
X0039252Y0029600D01*
X0039250Y0029447D01*
X0039244Y0029293D01*
X0039234Y0029140D01*
X0039220Y0028988D01*
X0039202Y0028835D01*
X0039180Y0028684D01*
X0039155Y0028533D01*
X0039125Y0028382D01*
X0039091Y0028232D01*
X0039054Y0028084D01*
X0039013Y0027936D01*
X0038968Y0027790D01*
X0038919Y0027644D01*
X0038866Y0027500D01*
X0038810Y0027358D01*
X0038750Y0027217D01*
X0038686Y0027077D01*
X0038619Y0026939D01*
X0038548Y0026803D01*
X0038473Y0026669D01*
X0038396Y0026537D01*
X0038314Y0026407D01*
X0038230Y0026279D01*
X0038142Y0026153D01*
X0038051Y0026030D01*
X0037957Y0025909D01*
X0037859Y0025791D01*
X0037759Y0025675D01*
X0037655Y0025562D01*
X0037549Y0025451D01*
X0037440Y0025343D01*
X0037328Y0025238D01*
X0037214Y0025137D01*
X0037096Y0025038D01*
X0036977Y0024942D01*
X0036855Y0024849D01*
X0036730Y0024760D01*
X0036603Y0024673D01*
X0036474Y0024591D01*
X0036343Y0024511D01*
X0036210Y0024435D01*
X0036075Y0024362D01*
X0035938Y0024293D01*
X0035799Y0024228D01*
X0035659Y0024166D01*
X0035517Y0024108D01*
X0035374Y0024053D01*
X0035229Y0024002D01*
X0035083Y0023955D01*
X0034936Y0023912D01*
X0034788Y0023873D01*
X0034639Y0023837D01*
X0034489Y0023806D01*
X0034338Y0023778D01*
X0034187Y0023754D01*
X0034034Y0023734D01*
X0033882Y0023718D01*
X0033729Y0023706D01*
X0033576Y0023698D01*
X0033423Y0023694D01*
X0033269Y0023694D01*
X0033116Y0023698D01*
X0032963Y0023706D01*
X0032810Y0023718D01*
X0032658Y0023734D01*
X0032505Y0023754D01*
X0032354Y0023778D01*
X0032203Y0023806D01*
X0032053Y0023837D01*
X0031904Y0023873D01*
X0031756Y0023912D01*
X0031609Y0023955D01*
X0031463Y0024002D01*
X0031318Y0024053D01*
X0031175Y0024108D01*
X0031033Y0024166D01*
X0030893Y0024228D01*
X0030754Y0024293D01*
X0030617Y0024362D01*
X0030482Y0024435D01*
X0030349Y0024511D01*
X0030218Y0024591D01*
X0030089Y0024673D01*
X0029962Y0024760D01*
X0029837Y0024849D01*
X0029715Y0024942D01*
X0029596Y0025038D01*
X0029478Y0025137D01*
X0029364Y0025238D01*
X0029252Y0025343D01*
X0029143Y0025451D01*
X0029037Y0025562D01*
X0028933Y0025675D01*
X0028833Y0025791D01*
X0028735Y0025909D01*
X0028641Y0026030D01*
X0028550Y0026153D01*
X0028462Y0026279D01*
X0028378Y0026407D01*
X0028296Y0026537D01*
X0028219Y0026669D01*
X0028144Y0026803D01*
X0028073Y0026939D01*
X0028006Y0027077D01*
X0027942Y0027217D01*
X0027882Y0027358D01*
X0027826Y0027500D01*
X0027773Y0027644D01*
X0027724Y0027790D01*
X0027679Y0027936D01*
X0027638Y0028084D01*
X0027601Y0028232D01*
X0027567Y0028382D01*
X0027537Y0028533D01*
X0027512Y0028684D01*
X0027490Y0028835D01*
X0027472Y0028988D01*
X0027458Y0029140D01*
X0027448Y0029293D01*
X0027442Y0029447D01*
X0027440Y0029600D01*
X0043933Y0025663D02*
X0044720Y0025663D01*
X0043933Y0025663D02*
X0043933Y0033537D01*
X0044720Y0033537D01*
X0099047Y0037679D02*
X0099047Y0047521D01*
X0111646Y0047521D01*
X0111646Y0037679D01*
X0099047Y0037679D01*
X0073071Y0099100D02*
X0063228Y0099100D01*
D17*
X0064409Y0096639D02*
X0072283Y0096639D01*
X0072283Y0101561D02*
X0064409Y0101561D01*
D18*
X0068346Y0099100D03*
D19*
X0051398Y0050870D02*
X0051398Y0047801D01*
X0048329Y0050870D01*
X0047562Y0050870D01*
X0046795Y0050103D01*
X0046795Y0048568D01*
X0047562Y0047801D01*
X0049096Y0046266D02*
X0049096Y0043197D01*
X0046795Y0045499D01*
X0051398Y0045499D01*
X0050631Y0041662D02*
X0049864Y0041662D01*
X0049096Y0040895D01*
X0049096Y0039360D01*
X0048329Y0038593D01*
X0047562Y0038593D01*
X0046795Y0039360D01*
X0046795Y0040895D01*
X0047562Y0041662D01*
X0050631Y0041662D02*
X0051398Y0040895D01*
X0051398Y0039360D01*
X0050631Y0038593D01*
X0051398Y0035524D02*
X0046795Y0035524D01*
X0046795Y0037058D02*
X0046795Y0033989D01*
X0020430Y0035472D02*
X0020430Y0032403D01*
X0015826Y0032403D01*
X0015826Y0035472D01*
X0015826Y0037007D02*
X0015826Y0040076D01*
X0015826Y0038542D02*
X0020430Y0038542D01*
X0018128Y0033938D02*
X0018128Y0032403D01*
X0018895Y0030868D02*
X0019663Y0030868D01*
X0020430Y0030101D01*
X0020430Y0028567D01*
X0019663Y0027799D01*
X0020430Y0026265D02*
X0020430Y0023195D01*
X0015826Y0023195D01*
X0015826Y0026265D01*
X0016593Y0027799D02*
X0017361Y0027799D01*
X0018128Y0028567D01*
X0018128Y0030101D01*
X0018895Y0030868D01*
X0016593Y0030868D02*
X0015826Y0030101D01*
X0015826Y0028567D01*
X0016593Y0027799D01*
X0018128Y0024730D02*
X0018128Y0023195D01*
X0018128Y0021661D02*
X0016593Y0021661D01*
X0015826Y0020893D01*
X0015826Y0018591D01*
X0020430Y0018591D01*
X0018895Y0018591D02*
X0018895Y0020893D01*
X0018128Y0021661D01*
X0018895Y0020126D02*
X0020430Y0021661D01*
M02*
